<?xml version="1.0" encoding="UTF-8"?>
<svg xmlns="http://www.w3.org/2000/svg" xmlns:xlink="http://www.w3.org/1999/xlink" width="400px" height="400px" viewBox="0 0 400 400" version="1.1">
<g id="surface1">
<path style=" stroke:none;fill-rule:evenodd;fill:rgb(19.607843%,56.470588%,56.078431%);fill-opacity:1;" d="M 172.566406 58.007812 L 172.566406 63.082031 L 182.71875 63.082031 L 182.71875 52.929688 L 172.566406 52.929688 L 172.566406 58.007812 M 191.179688 67.070312 L 191.179688 70.574219 L 183.203125 70.574219 L 183.203125 80.726562 L 193.355469 80.726562 L 193.355469 73.714844 L 198.914062 73.714844 L 198.914062 72.871094 C 198.914062 72.027344 198.917969 72.023438 200 72.023438 L 201.085938 72.023438 L 201.085938 63.566406 L 191.179688 63.566406 L 191.179688 67.070312 M 210.269531 180.417969 C 210.269531 180.496094 210.488281 180.984375 210.75 181.503906 C 211.015625 182.019531 211.515625 183.402344 211.867188 184.574219 C 213.863281 191.28125 211.300781 199.125 206.308594 201.574219 C 203.117188 203.144531 197.8125 203.464844 194.320312 202.296875 C 190.824219 201.128906 187.597656 198.710938 186.476562 196.417969 C 184.441406 192.257812 184.839844 186.003906 187.367188 182.421875 C 187.570312 182.140625 187.585938 181.929688 187.417969 181.761719 C 186.792969 181.136719 182.15625 184.675781 180.292969 187.203125 C 176.457031 192.398438 174.757812 201.144531 176.433594 207.089844 C 178.394531 214.050781 185.433594 221.15625 192.878906 223.6875 C 197.59375 225.292969 203.566406 225.597656 207.910156 224.457031 C 213.398438 223.011719 217.296875 220.851562 220.886719 217.261719 C 224.625 213.523438 226.683594 209.703125 228.222656 203.65625 L 228.976562 200.703125 L 227.441406 198.417969 C 223.789062 192.984375 218.949219 187.589844 213.945312 183.371094 C 211.921875 181.667969 210.269531 180.339844 210.269531 180.417969 M 76.375 252.628906 L 76.371094 256.796875 L 74.285156 259.046875 C 73.140625 260.285156 71.015625 262.375 69.566406 263.6875 L 66.933594 266.082031 L 65.191406 266.152344 L 63.445312 266.222656 L 63.3125 276.011719 L 66.835938 276.011719 L 70.09375 279.039062 C 71.886719 280.703125 74.03125 282.789062 74.863281 283.675781 L 76.375 285.285156 L 76.375 293.65625 L 86.105469 293.65625 L 85.980469 288.761719 C 85.824219 282.378906 85.574219 281.507812 83.054688 278.628906 C 82.078125 277.511719 79.976562 275.371094 78.382812 273.867188 L 75.488281 271.136719 L 79.90625 266.746094 C 85.832031 260.859375 86.027344 260.398438 86.035156 252.386719 L 86.042969 248.457031 L 76.375 248.457031 L 76.375 252.628906 M 318.710938 248.621094 C 318.464844 248.863281 318.527344 254.558594 318.800781 257.15625 C 319.195312 260.914062 319.679688 261.691406 324.785156 266.785156 L 329.121094 271.109375 L 324.589844 275.675781 C 320.519531 279.78125 320.007812 280.386719 319.53125 281.679688 C 318.929688 283.328125 318.570312 286.675781 318.558594 290.816406 L 318.550781 293.65625 L 328.460938 293.65625 L 328.460938 285.070312 L 331.902344 281.667969 C 333.796875 279.800781 335.929688 277.761719 336.640625 277.140625 C 337.914062 276.03125 337.964844 276.011719 339.601562 276.011719 L 341.269531 276.011719 L 341.269531 266.101562 L 337.617188 266.101562 L 328.460938 257.085938 L 328.460938 248.457031 L 323.664062 248.457031 C 321.027344 248.457031 318.800781 248.53125 318.710938 248.621094 M 145.257812 288.695312 L 145.257812 293.898438 L 155.660156 293.898438 L 155.527344 283.625 L 150.390625 283.558594 L 145.257812 283.496094 L 145.257812 288.695312 M 210.996094 288.699219 L 210.996094 293.898438 L 221.148438 293.898438 L 221.148438 283.503906 L 210.996094 283.503906 L 210.996094 288.699219 "/>
<path style=" stroke:none;fill-rule:evenodd;fill:rgb(88.627451%,42.352941%,23.529412%);fill-opacity:1;" d="M 174.148438 52.402344 C 173.355469 52.441406 172.566406 52.589844 172.394531 52.734375 C 171.964844 53.089844 171.945312 62.847656 172.375 63.277344 C 172.785156 63.683594 182.503906 63.683594 182.910156 63.277344 C 183.332031 62.855469 183.320312 53.089844 182.902344 52.738281 C 182.59375 52.488281 176.800781 52.261719 174.148438 52.402344 M 172.566406 58.007812 L 172.566406 63.082031 L 182.71875 63.082031 L 182.71875 52.929688 L 172.566406 52.929688 L 172.566406 58.007812 M 202.476562 54.398438 C 202.15625 54.585938 202.054688 54.964844 202.054688 55.949219 C 202.054688 56.664062 202.164062 57.320312 202.296875 57.402344 C 202.429688 57.484375 202.539062 58.246094 202.539062 59.09375 C 202.539062 59.941406 202.652344 60.707031 202.792969 60.792969 C 202.964844 60.898438 202.996094 62.398438 202.886719 65.460938 C 202.644531 72.199219 202.710938 71.652344 202.105469 71.738281 C 201.570312 71.816406 201.570312 71.804688 201.570312 67.71875 C 201.570312 64.535156 201.496094 63.5625 201.238281 63.347656 C 201.003906 63.15625 199.410156 63.089844 195.980469 63.136719 L 191.058594 63.203125 L 190.984375 64.351562 C 190.9375 65.035156 190.621094 66.046875 190.199219 66.851562 C 189.726562 67.753906 189.484375 68.558594 189.484375 69.261719 L 189.484375 70.316406 L 186.40625 70.394531 C 183.351562 70.46875 183.359375 70.46875 187.25 70.519531 L 191.179688 70.574219 L 191.179688 63.566406 L 201.085938 63.566406 L 201.085938 72.023438 L 200 72.023438 C 198.917969 72.023438 198.914062 72.027344 198.914062 72.871094 L 198.914062 73.714844 L 193.355469 73.714844 L 193.355469 80.714844 L 183.324219 80.859375 L 188.519531 80.855469 L 193.714844 80.847656 L 193.847656 74.199219 L 198.660156 74.199219 L 198.726562 78.246094 L 198.792969 82.296875 L 200.34375 82.367188 C 201.390625 82.417969 202.105469 82.59375 202.542969 82.90625 C 203.082031 83.289062 203.707031 83.382812 206.191406 83.445312 L 209.183594 83.519531 L 205.757812 83.574219 C 202.054688 83.628906 201.570312 83.789062 201.570312 84.957031 C 201.570312 85.273438 201.464844 85.597656 201.328125 85.679688 C 201.195312 85.761719 201.085938 86.089844 201.085938 86.40625 C 201.085938 86.71875 200.976562 87.046875 200.847656 87.128906 C 200.710938 87.210938 200.605469 87.597656 200.605469 87.988281 L 200.605469 88.699219 L 196.0625 88.699219 C 192.847656 88.699219 191.429688 88.785156 191.226562 88.992188 C 190.816406 89.402344 190.816406 99.121094 191.226562 99.527344 C 191.636719 99.9375 201.355469 99.9375 201.761719 99.527344 C 201.964844 99.328125 202.054688 98.066406 202.054688 95.417969 C 202.054688 91.945312 202.09375 91.601562 202.476562 91.601562 C 202.863281 91.601562 202.902344 91.980469 202.902344 96.1875 L 202.902344 100.773438 L 199.28125 100.839844 C 195.804688 100.902344 195.652344 100.925781 195.394531 101.449219 C 195.246094 101.746094 194.960938 102.179688 194.761719 102.414062 C 194.566406 102.648438 194.109375 103.453125 193.75 104.203125 C 193.394531 104.957031 192.941406 105.703125 192.742188 105.863281 C 192.546875 106.027344 192.386719 106.292969 192.386719 106.457031 C 192.386719 106.621094 192.167969 106.949219 191.902344 107.191406 C 191.636719 107.429688 191.417969 107.757812 191.417969 107.914062 C 191.417969 108.074219 191.203125 108.398438 190.9375 108.640625 C 190.671875 108.882812 190.453125 109.207031 190.453125 109.367188 C 190.453125 109.523438 190.234375 109.851562 189.96875 110.089844 C 189.703125 110.332031 189.484375 110.652344 189.484375 110.808594 C 189.484375 110.960938 189.160156 111.402344 188.761719 111.78125 C 188.363281 112.164062 188.035156 112.59375 188.035156 112.734375 C 188.035156 113.066406 177.121094 123.988281 176.792969 123.988281 C 176.660156 123.988281 175.378906 125.164062 173.945312 126.597656 C 171.484375 129.070312 170.152344 130.960938 170.152344 131.992188 C 170.152344 132.226562 170.042969 132.484375 169.910156 132.566406 C 169.777344 132.648438 169.667969 132.976562 169.667969 133.292969 C 169.667969 133.609375 169.558594 133.9375 169.425781 134.019531 C 169.277344 134.109375 169.183594 135.949219 169.183594 138.730469 C 169.183594 141.511719 169.277344 143.355469 169.425781 143.445312 C 169.558594 143.527344 169.667969 143.777344 169.667969 144 C 169.667969 144.53125 172.253906 149.730469 172.703125 150.101562 C 172.894531 150.261719 173.050781 150.519531 173.050781 150.679688 C 173.050781 150.835938 173.378906 151.277344 173.777344 151.660156 C 174.175781 152.042969 174.503906 152.472656 174.503906 152.617188 C 174.503906 152.949219 183.730469 162.175781 184.0625 162.175781 C 184.199219 162.175781 184.738281 162.609375 185.257812 163.140625 C 185.777344 163.671875 186.324219 164.109375 186.46875 164.109375 C 186.617188 164.109375 187.050781 164.4375 187.433594 164.835938 C 187.8125 165.234375 188.253906 165.558594 188.40625 165.558594 C 188.5625 165.558594 188.882812 165.777344 189.125 166.042969 C 189.363281 166.308594 189.695312 166.523438 189.855469 166.523438 C 190.019531 166.523438 190.292969 166.695312 190.460938 166.898438 C 190.632812 167.105469 191.226562 167.480469 191.78125 167.734375 C 192.335938 167.988281 192.929688 168.359375 193.101562 168.566406 C 193.273438 168.773438 193.546875 168.945312 193.707031 168.945312 C 193.871094 168.945312 194.199219 169.160156 194.441406 169.425781 C 194.683594 169.691406 195.007812 169.910156 195.167969 169.910156 C 195.324219 169.910156 195.652344 170.125 195.890625 170.394531 C 196.132812 170.660156 196.457031 170.875 196.617188 170.875 C 196.777344 170.875 197.101562 171.09375 197.34375 171.359375 C 197.582031 171.625 197.910156 171.84375 198.066406 171.84375 C 198.226562 171.84375 198.550781 172.0625 198.792969 172.328125 C 199.03125 172.59375 199.359375 172.808594 199.515625 172.808594 C 199.675781 172.808594 200 173.027344 200.242188 173.292969 C 200.484375 173.558594 200.808594 173.777344 200.96875 173.777344 C 201.125 173.777344 201.453125 173.996094 201.691406 174.257812 C 201.933594 174.523438 202.253906 174.742188 202.410156 174.742188 C 202.5625 174.742188 203.003906 175.070312 203.382812 175.46875 C 203.765625 175.867188 204.199219 176.191406 204.347656 176.191406 C 204.492188 176.191406 205.039062 176.628906 205.558594 177.160156 C 206.078125 177.691406 206.625 178.125 206.769531 178.125 C 206.917969 178.125 207.351562 178.453125 207.734375 178.851562 C 208.117188 179.25 208.550781 179.578125 208.699219 179.578125 C 209.230469 179.578125 210.753906 181.609375 210.753906 182.316406 C 210.753906 182.75 211.5 184.230469 211.644531 184.085938 C 211.738281 183.992188 211.246094 182.671875 210.332031 180.550781 C 210.25 180.355469 211.851562 181.609375 213.898438 183.332031 C 218.945312 187.585938 223.777344 192.96875 227.433594 198.40625 L 228.960938 200.679688 L 228.402344 202.996094 C 228.097656 204.273438 227.789062 205.46875 227.71875 205.660156 C 227.636719 205.875 227.695312 205.9375 227.875 205.828125 C 228.027344 205.730469 228.15625 205.390625 228.15625 205.078125 C 228.15625 204.757812 228.265625 204.433594 228.398438 204.351562 C 228.53125 204.269531 228.640625 203.832031 228.640625 203.382812 C 228.640625 202.933594 228.75 202.5 228.882812 202.417969 C 229.03125 202.324219 229.125 200.242188 229.125 196.976562 C 229.125 193.714844 229.03125 191.632812 228.882812 191.539062 C 228.75 191.457031 228.640625 190.808594 228.640625 190.089844 C 228.640625 189.375 228.53125 188.722656 228.398438 188.640625 C 228.265625 188.558594 228.15625 188.015625 228.15625 187.433594 C 228.15625 186.847656 228.046875 186.304688 227.917969 186.222656 C 227.78125 186.140625 227.671875 185.816406 227.671875 185.5 C 227.671875 185.179688 227.566406 184.855469 227.433594 184.773438 C 227.300781 184.691406 227.191406 184.367188 227.191406 184.046875 C 227.191406 183.730469 227.082031 183.40625 226.949219 183.324219 C 226.816406 183.242188 226.707031 182.964844 226.707031 182.714844 C 226.707031 182.457031 226.488281 181.863281 226.222656 181.390625 C 225.957031 180.917969 225.742188 180.378906 225.742188 180.199219 C 225.742188 180.015625 225.410156 179.242188 225.007812 178.476562 C 224.277344 177.085938 224.277344 177.085938 224.765625 176.5625 C 225.035156 176.277344 225.257812 175.925781 225.257812 175.785156 C 225.257812 175.644531 225.421875 175.390625 225.621094 175.222656 C 225.824219 175.058594 226.3125 174.242188 226.707031 173.414062 C 227.101562 172.585938 227.589844 171.769531 227.792969 171.601562 C 227.992188 171.4375 228.15625 171.105469 228.15625 170.871094 C 228.15625 170.632812 228.484375 169.824219 228.882812 169.0625 C 229.28125 168.304688 229.605469 167.484375 229.605469 167.242188 C 229.605469 166.996094 229.714844 166.726562 229.847656 166.644531 C 229.980469 166.566406 230.089844 166.238281 230.089844 165.921875 C 230.089844 165.605469 230.199219 165.277344 230.332031 165.195312 C 230.464844 165.113281 230.574219 164.789062 230.574219 164.46875 C 230.574219 164.15625 230.683594 163.828125 230.816406 163.746094 C 230.949219 163.664062 231.054688 163.230469 231.054688 162.78125 C 231.054688 162.328125 231.164062 161.894531 231.300781 161.8125 C 231.433594 161.730469 231.542969 161.296875 231.542969 160.84375 C 231.542969 160.394531 231.648438 159.960938 231.78125 159.878906 C 231.917969 159.796875 232.023438 158.925781 232.023438 157.945312 C 232.023438 156.964844 232.132812 156.09375 232.265625 156.011719 C 232.414062 155.921875 232.507812 154.082031 232.507812 151.296875 C 232.507812 148.519531 232.414062 146.679688 232.265625 146.585938 C 232.132812 146.503906 232.023438 145.851562 232.023438 145.136719 C 232.023438 144.421875 231.917969 143.765625 231.78125 143.683594 C 231.648438 143.605469 231.542969 143.0625 231.542969 142.476562 C 231.542969 141.894531 231.433594 141.351562 231.300781 141.269531 C 231.164062 141.1875 231.054688 140.75 231.054688 140.300781 C 231.054688 139.851562 230.949219 139.417969 230.816406 139.335938 C 230.683594 139.253906 230.574219 138.925781 230.574219 138.609375 C 230.574219 138.292969 230.464844 137.96875 230.332031 137.886719 C 230.199219 137.800781 230.089844 137.476562 230.089844 137.160156 C 230.089844 136.84375 229.980469 136.519531 229.847656 136.433594 C 229.714844 136.351562 229.605469 136.085938 229.605469 135.839844 C 229.605469 135.597656 229.28125 134.777344 228.882812 134.019531 C 228.484375 133.261719 228.15625 132.488281 228.15625 132.300781 C 228.15625 131.925781 227.742188 131.109375 227.210938 130.453125 C 227.023438 130.21875 226.75 129.785156 226.601562 129.484375 C 226.441406 129.160156 226.066406 128.910156 225.660156 128.863281 C 224.398438 128.71875 224.289062 129.035156 224.289062 132.824219 C 224.289062 134.871094 224.191406 136.347656 224.046875 136.433594 C 223.917969 136.519531 223.808594 137.277344 223.808594 138.125 C 223.808594 138.972656 223.699219 139.738281 223.566406 139.820312 C 223.433594 139.902344 223.324219 140.226562 223.324219 140.542969 C 223.324219 140.859375 223.214844 141.1875 223.082031 141.269531 C 222.949219 141.351562 222.839844 141.679688 222.839844 141.992188 C 222.839844 142.308594 222.730469 142.636719 222.597656 142.71875 C 222.464844 142.800781 222.355469 143.0625 222.355469 143.296875 C 222.355469 143.777344 221.386719 145.785156 220.851562 146.417969 C 220.660156 146.644531 220.328125 147.210938 220.117188 147.675781 C 219.902344 148.144531 219.449219 148.789062 219.109375 149.109375 C 218.769531 149.429688 218.488281 149.808594 218.488281 149.957031 C 218.488281 150.292969 214.335938 154.441406 213.996094 154.441406 C 213.859375 154.441406 213.433594 154.769531 213.050781 155.167969 C 212.667969 155.566406 212.25 155.890625 212.113281 155.890625 C 211.984375 155.890625 211.621094 156.128906 211.316406 156.417969 L 210.753906 156.941406 L 210.15625 156.378906 C 209.496094 155.761719 207.371094 151.660156 207.371094 151.007812 C 207.371094 150.785156 207.261719 150.535156 207.128906 150.453125 C 206.996094 150.371094 206.886719 150.042969 206.886719 149.726562 C 206.886719 149.414062 206.78125 149.085938 206.644531 149.003906 C 206.515625 148.921875 206.40625 148.59375 206.40625 148.277344 C 206.40625 147.960938 206.296875 147.636719 206.164062 147.554688 C 206.03125 147.46875 205.921875 147.144531 205.921875 146.828125 C 205.921875 146.511719 205.8125 146.1875 205.679688 146.101562 C 205.546875 146.019531 205.4375 145.367188 205.4375 144.652344 C 205.4375 143.9375 205.328125 143.285156 205.195312 143.203125 C 205.054688 143.113281 204.957031 141.59375 204.957031 139.457031 C 204.957031 137.316406 205.054688 135.796875 205.195312 135.710938 C 205.328125 135.628906 205.4375 135.082031 205.4375 134.5 C 205.4375 133.917969 205.546875 133.375 205.679688 133.292969 C 205.8125 133.210938 205.921875 132.886719 205.921875 132.566406 C 205.921875 132.25 206.03125 131.925781 206.164062 131.84375 C 206.296875 131.761719 206.40625 131.511719 206.40625 131.285156 C 206.40625 130.757812 208.992188 125.558594 209.441406 125.183594 C 209.632812 125.023438 209.789062 124.761719 209.789062 124.601562 C 209.789062 124.4375 210.007812 124.109375 210.269531 123.867188 C 210.539062 123.628906 210.753906 123.300781 210.753906 123.144531 C 210.753906 122.984375 210.972656 122.65625 211.238281 122.417969 C 211.503906 122.175781 211.722656 121.859375 211.722656 121.710938 C 211.722656 121.566406 214.0625 119.109375 216.921875 116.25 C 221.851562 111.328125 222.179688 110.941406 223.207031 108.882812 C 223.804688 107.683594 224.289062 106.519531 224.289062 106.296875 C 224.289062 106.070312 224.398438 105.824219 224.53125 105.742188 C 224.679688 105.648438 224.773438 103.566406 224.773438 100.300781 C 224.773438 97.039062 224.679688 94.957031 224.53125 94.863281 C 224.398438 94.78125 224.289062 94.347656 224.289062 93.898438 C 224.289062 93.449219 224.179688 93.011719 224.046875 92.929688 C 223.917969 92.847656 223.808594 92.304688 223.808594 91.722656 C 223.808594 91.140625 223.699219 90.597656 223.566406 90.515625 C 223.433594 90.429688 223.324219 89.886719 223.324219 89.304688 C 223.324219 88.722656 223.214844 88.179688 223.082031 88.097656 C 222.949219 88.015625 222.839844 87.578125 222.839844 87.128906 C 222.839844 86.679688 222.730469 86.246094 222.597656 86.164062 C 222.464844 86.082031 222.355469 85.753906 222.355469 85.4375 C 222.355469 85.121094 222.25 84.792969 222.113281 84.714844 C 221.980469 84.632812 221.875 84.304688 221.875 83.988281 C 221.875 83.671875 221.765625 83.34375 221.632812 83.261719 C 221.496094 83.179688 221.390625 82.855469 221.390625 82.539062 C 221.390625 82.222656 221.28125 81.894531 221.148438 81.8125 C 221.015625 81.730469 220.90625 81.453125 220.90625 81.203125 C 220.90625 80.949219 220.691406 80.351562 220.421875 79.878906 C 220.15625 79.40625 219.9375 78.863281 219.9375 78.671875 C 219.9375 78.480469 219.722656 77.933594 219.457031 77.460938 C 219.191406 76.988281 218.972656 76.464844 218.972656 76.296875 C 218.972656 75.914062 216.480469 70.925781 216.015625 70.378906 C 215.824219 70.152344 215.492188 69.578125 215.269531 69.097656 C 215.050781 68.617188 214.707031 68.085938 214.507812 67.917969 C 214.304688 67.753906 214.140625 67.480469 214.140625 67.3125 C 214.140625 67.144531 213.96875 66.867188 213.765625 66.699219 C 213.558594 66.527344 213.1875 65.941406 212.9375 65.398438 C 212.691406 64.855469 212.207031 64.148438 211.863281 63.824219 C 211.519531 63.503906 211.238281 63.113281 211.238281 62.964844 C 211.238281 62.8125 210.914062 62.375 210.515625 61.996094 C 210.113281 61.613281 209.789062 61.183594 209.789062 61.039062 C 209.789062 60.785156 203.253906 54.132812 203.019531 54.144531 C 202.953125 54.148438 202.710938 54.265625 202.476562 54.398438 M 175.964844 206.570312 C 175.957031 207.128906 176.0625 207.652344 176.191406 207.734375 C 176.328125 207.816406 176.433594 208.066406 176.433594 208.292969 C 176.433594 208.941406 178.558594 213.039062 179.21875 213.660156 C 179.546875 213.96875 179.820312 214.34375 179.820312 214.488281 C 179.820312 214.828125 185.183594 220.179688 185.527344 220.179688 C 185.667969 220.179688 185.984375 220.398438 186.222656 220.664062 C 186.464844 220.929688 186.792969 221.148438 186.957031 221.148438 C 187.117188 221.148438 187.382812 221.304688 187.542969 221.5 C 187.917969 221.953125 191.175781 223.566406 191.710938 223.566406 C 191.933594 223.566406 192.183594 223.671875 192.265625 223.808594 C 192.347656 223.9375 192.675781 224.046875 192.992188 224.046875 C 193.308594 224.046875 193.632812 224.15625 193.714844 224.289062 C 193.796875 224.421875 194.214844 224.527344 194.636719 224.523438 C 195.207031 224.515625 194.863281 224.335938 193.3125 223.828125 C 185.679688 221.335938 178.65625 214.453125 176.523438 207.371094 C 176.003906 205.644531 175.976562 205.605469 175.964844 206.570312 M 224.90625 212.132812 C 221.246094 218.347656 215.59375 222.460938 208.023438 224.414062 C 206.117188 224.910156 205.945312 224.992188 206.8125 225.003906 C 207.371094 225.007812 207.894531 224.90625 207.976562 224.773438 C 208.058594 224.640625 208.492188 224.53125 208.941406 224.53125 C 209.390625 224.53125 209.828125 224.421875 209.910156 224.289062 C 209.992188 224.15625 210.265625 224.046875 210.519531 224.046875 C 210.773438 224.046875 211.371094 223.828125 211.84375 223.566406 C 212.316406 223.300781 212.84375 223.082031 213.011719 223.082031 C 213.464844 223.082031 215.742188 221.90625 216.082031 221.5 C 216.242188 221.304688 216.503906 221.148438 216.667969 221.148438 C 216.832031 221.148438 217.160156 220.929688 217.402344 220.664062 C 217.644531 220.398438 217.960938 220.179688 218.109375 220.179688 C 218.453125 220.179688 223.808594 214.820312 223.808594 214.472656 C 223.808594 214.332031 224.023438 214.015625 224.289062 213.777344 C 224.554688 213.535156 224.773438 213.207031 224.773438 213.042969 C 224.773438 212.882812 224.9375 212.609375 225.140625 212.441406 C 225.585938 212.074219 226.300781 210.617188 226.1875 210.316406 C 226.140625 210.199219 225.566406 211.015625 224.90625 212.132812 M 113.5625 246.671875 C 113.210938 246.859375 112.746094 247.28125 112.53125 247.613281 C 112.132812 248.21875 112.132812 248.21875 107.664062 248.21875 C 103.171875 248.21875 102.789062 248.277344 101.679688 249.171875 C 100.511719 250.113281 100.535156 249.546875 100.601562 272.511719 L 100.664062 294.019531 L 110.574219 294.019531 L 110.636719 276.632812 C 110.691406 260.910156 110.738281 259.207031 111.09375 258.808594 C 111.46875 258.398438 112.324219 258.371094 125.535156 258.308594 L 139.578125 258.246094 L 139.578125 248.339844 L 129.652344 248.273438 L 119.730469 248.210938 L 118.789062 247.25 C 117.847656 246.285156 117.84375 246.285156 116.023438 246.308594 C 114.980469 246.324219 113.925781 246.480469 113.5625 246.671875 M 76.054688 248.378906 C 75.964844 248.46875 75.890625 250.039062 75.890625 251.867188 C 75.890625 253.828125 75.789062 255.261719 75.648438 255.347656 C 75.515625 255.429688 75.40625 255.953125 75.40625 256.511719 C 75.40625 257.5 75.304688 257.628906 71.839844 261.089844 C 69.878906 263.050781 68.160156 264.652344 68.019531 264.652344 C 67.878906 264.652344 67.453125 264.980469 67.070312 265.378906 C 66.6875 265.777344 66.496094 266.101562 66.644531 266.101562 C 67.042969 266.101562 71.902344 261.621094 74.285156 259.046875 L 76.371094 256.796875 L 76.375 252.632812 L 76.375 248.46875 L 85.921875 248.328125 L 81.066406 248.273438 C 78.398438 248.242188 76.140625 248.289062 76.054688 248.378906 M 163.917969 248.570312 C 163.613281 248.738281 163.089844 249.132812 162.753906 249.449219 C 161.386719 250.734375 161.441406 249.6875 161.511719 272.753906 L 161.570312 294.019531 L 171.480469 294.019531 L 171.542969 276.867188 L 171.605469 259.722656 L 172.253906 259.046875 L 172.898438 258.367188 L 182.96875 258.367188 C 192.414062 258.367188 193.0625 258.398438 193.4375 258.808594 C 193.78125 259.1875 193.835938 259.917969 193.835938 263.96875 C 193.835938 268.234375 193.792969 268.726562 193.394531 269.085938 C 193 269.441406 192.023438 269.488281 184.480469 269.488281 C 177.578125 269.488281 175.960938 269.546875 175.734375 269.820312 C 175.542969 270.050781 175.476562 271.585938 175.523438 274.835938 L 175.589844 279.515625 L 184.273438 279.582031 C 191.902344 279.636719 193.011719 279.691406 193.394531 280.039062 C 193.789062 280.394531 193.835938 281.039062 193.894531 287.222656 L 193.957031 294.019531 L 203.867188 294.019531 L 203.929688 272.511719 C 203.996094 249.546875 204.019531 250.113281 202.851562 249.171875 C 201.648438 248.199219 201.988281 248.21875 182.90625 248.242188 C 168.546875 248.257812 164.351562 248.332031 163.917969 248.570312 M 231.144531 248.550781 C 230.285156 249.027344 229.878906 249.4375 229.492188 250.214844 C 229.171875 250.855469 229.125 253.535156 229.125 270.9375 C 229.125 292.746094 229.050781 291.59375 230.519531 293 L 231.207031 293.65625 L 251.132812 293.597656 L 271.058594 293.535156 L 271.058594 284.109375 L 255.167969 284.046875 L 239.273438 283.984375 L 239.273438 271.578125 C 239.273438 259.863281 239.300781 259.144531 239.71875 258.769531 C 240.113281 258.410156 241.195312 258.367188 250.195312 258.367188 C 259.546875 258.367188 260.253906 258.398438 260.621094 258.804688 C 260.941406 259.160156 261.027344 259.9375 261.082031 263.09375 L 261.148438 266.949219 L 271.058594 266.949219 L 271.121094 258.625 L 271.1875 250.304688 L 270.523438 249.613281 C 269.117188 248.148438 270.128906 248.214844 250.054688 248.242188 C 236.316406 248.257812 231.53125 248.339844 231.144531 248.550781 M 323.6875 248.394531 L 328.460938 248.46875 L 328.460938 257.085938 L 333.039062 261.59375 C 335.558594 264.074219 337.761719 266.101562 337.929688 266.101562 C 338.101562 266.101562 336.097656 263.957031 333.476562 261.328125 L 328.710938 256.554688 L 328.582031 248.339844 L 323.746094 248.332031 L 318.914062 248.324219 L 323.6875 248.394531 M 318.582031 257.449219 C 318.5625 258.472656 318.65625 259.375 318.792969 259.457031 C 318.925781 259.539062 319.035156 259.792969 319.035156 260.027344 C 319.035156 261.226562 320.382812 262.992188 324.222656 266.824219 C 326.421875 269.015625 328.21875 270.976562 328.21875 271.179688 C 328.21875 271.382812 326.421875 273.339844 324.222656 275.53125 C 320.382812 279.363281 319.035156 281.132812 319.035156 282.328125 C 319.035156 282.5625 318.925781 282.816406 318.792969 282.902344 C 318.65625 282.984375 318.5625 283.972656 318.582031 285.152344 L 318.617188 287.25 L 318.804688 285.195312 C 319.152344 281.351562 319.457031 280.851562 324.589844 275.675781 L 329.121094 271.109375 L 324.785156 266.785156 C 319.800781 261.8125 319.167969 260.828125 318.816406 257.492188 L 318.613281 255.589844 L 318.582031 257.449219 M 85.757812 258.1875 C 85.4375 260.925781 84.734375 261.945312 79.90625 266.746094 L 75.488281 271.136719 L 78.382812 273.867188 C 84.023438 279.183594 85.316406 281.003906 85.800781 284.324219 L 85.980469 285.558594 L 86.011719 284.0625 C 86.03125 283.238281 85.933594 282.5 85.800781 282.417969 C 85.667969 282.332031 85.558594 282.074219 85.558594 281.835938 C 85.558594 280.902344 84.691406 279.84375 80.613281 275.773438 C 78.28125 273.449219 76.375 271.382812 76.375 271.179688 C 76.375 270.976562 78.171875 269.015625 80.371094 266.824219 C 83.742188 263.460938 84.496094 262.574219 85.21875 261.117188 C 85.933594 259.675781 86.058594 259.183594 85.996094 258.097656 L 85.921875 256.796875 L 85.757812 258.1875 M 276.664062 265.773438 C 276.570312 265.867188 276.496094 266.949219 276.496094 268.179688 C 276.496094 270.367188 276.476562 270.429688 275.808594 270.910156 C 275.265625 271.296875 274.664062 271.414062 272.96875 271.472656 L 270.816406 271.539062 L 270.746094 274.285156 C 270.703125 276.101562 270.773438 277.144531 270.957031 277.367188 C 271.164062 277.617188 271.914062 277.703125 273.859375 277.703125 L 276.476562 277.703125 L 276.617188 282.902344 L 282.175781 282.902344 L 282.242188 280.695312 C 282.332031 277.847656 282.4375 277.746094 285.324219 277.652344 L 287.492188 277.582031 L 287.492188 271.539062 L 284.902344 271.472656 L 282.3125 271.402344 L 282.242188 268.570312 L 282.175781 265.738281 L 279.503906 265.671875 C 278.035156 265.632812 276.757812 265.679688 276.664062 265.773438 M 297.933594 266.257812 C 297.839844 266.347656 297.761719 267.546875 297.761719 268.914062 L 297.761719 271.402344 L 294.921875 271.472656 L 292.085938 271.539062 L 292.085938 277.101562 L 294.917969 277.167969 L 297.75 277.238281 L 297.816406 280.070312 L 297.886719 282.902344 L 303.445312 282.902344 L 303.511719 280.308594 L 303.582031 277.722656 L 308.761719 277.582031 L 308.761719 271.539062 L 306.171875 271.472656 L 303.582031 271.402344 L 303.511719 268.8125 L 303.445312 266.222656 L 300.773438 266.15625 C 299.304688 266.117188 298.027344 266.164062 297.933594 266.257812 M 341.269531 271.007812 L 341.269531 276.011719 L 339.601562 276.011719 C 337.964844 276.011719 337.914062 276.03125 336.640625 277.140625 C 335.929688 277.761719 333.796875 279.800781 331.902344 281.667969 L 328.460938 285.070312 L 328.460938 293.65625 L 323.457031 293.65625 C 320.050781 293.65625 318.53125 293.734375 318.699219 293.902344 C 318.855469 294.058594 320.71875 294.125 323.761719 294.082031 L 328.582031 294.019531 L 328.710938 285.316406 L 332.75 281.269531 C 334.972656 279.042969 336.914062 277.222656 337.058594 277.222656 C 337.207031 277.222656 337.519531 277.007812 337.753906 276.746094 C 338.089844 276.378906 338.5625 276.257812 339.90625 276.203125 L 341.632812 276.132812 L 341.699219 271.316406 C 341.738281 268.269531 341.671875 266.410156 341.515625 266.253906 C 341.347656 266.085938 341.269531 267.601562 341.269531 271.007812 M 125.539062 269.238281 C 125.402344 269.375 123.042969 269.503906 119.992188 269.542969 L 114.683594 269.609375 L 114.683594 279.515625 L 139.09375 279.515625 L 139.09375 269.609375 L 134.507812 269.539062 C 131.941406 269.503906 129.816406 269.371094 129.6875 269.238281 C 129.378906 268.933594 125.847656 268.933594 125.539062 269.238281 M 64.773438 276.179688 C 65.503906 276.226562 66.375 276.390625 66.707031 276.546875 C 67.039062 276.699219 69.242188 278.738281 71.601562 281.070312 L 75.890625 285.3125 L 75.890625 289.4375 C 75.890625 292.320312 75.976562 293.648438 76.179688 293.847656 C 76.550781 294.21875 85.695312 294.261719 85.921875 293.898438 C 86.019531 293.738281 84.394531 293.65625 81.222656 293.65625 L 76.375 293.65625 L 76.375 285.285156 L 74.863281 283.675781 C 74.03125 282.789062 71.886719 280.703125 70.09375 279.039062 L 66.835938 276.011719 L 65.140625 276.058594 C 63.566406 276.097656 63.539062 276.105469 64.773438 276.179688 M 210.867188 288.882812 L 210.875 294.019531 L 212.042969 294.09375 C 212.683594 294.132812 213.582031 294.378906 214.042969 294.636719 C 214.554688 294.925781 215.335938 295.105469 216.074219 295.105469 C 216.804688 295.105469 217.585938 294.925781 218.101562 294.636719 C 218.5625 294.378906 219.460938 294.132812 220.105469 294.09375 L 221.269531 294.019531 L 221.277344 288.820312 L 221.285156 283.625 L 221.136719 293.898438 L 211.007812 293.898438 L 210.933594 288.820312 L 210.859375 283.746094 L 210.867188 288.882812 "/>
</g>
</svg>
