<?xml version="1.0" encoding="UTF-8"?>
<svg xmlns="http://www.w3.org/2000/svg" xmlns:xlink="http://www.w3.org/1999/xlink" width="361px" height="361px" viewBox="0 0 361 361" version="1.1">
<g id="surface1">
<path style=" stroke:none;fill-rule:evenodd;fill:rgb(19.607843%,56.470588%,56.078431%);fill-opacity:1;" d="M 155.742188 52.351562 L 155.742188 56.929688 L 164.902344 56.929688 L 164.902344 47.769531 L 155.742188 47.769531 L 155.742188 52.351562 M 172.539062 60.53125 L 172.539062 63.695312 L 165.339844 63.695312 L 165.339844 72.855469 L 174.5 72.855469 L 174.5 66.527344 L 179.519531 66.527344 L 179.519531 65.765625 C 179.519531 65.003906 179.523438 65.003906 180.5 65.003906 L 181.480469 65.003906 L 181.480469 57.367188 L 172.539062 57.367188 L 172.539062 60.53125 M 189.769531 162.828125 C 189.769531 162.898438 189.964844 163.339844 190.203125 163.804688 C 190.441406 164.273438 190.894531 165.519531 191.210938 166.578125 C 193.011719 172.628906 190.699219 179.710938 186.195312 181.921875 C 183.3125 183.335938 178.523438 183.625 175.375 182.574219 C 172.21875 181.519531 169.308594 179.335938 168.292969 177.265625 C 166.457031 173.511719 166.816406 167.867188 169.097656 164.636719 C 169.28125 164.382812 169.292969 164.191406 169.144531 164.039062 C 168.582031 163.476562 164.398438 166.671875 162.714844 168.949219 C 159.25 173.640625 157.71875 181.53125 159.230469 186.898438 C 161 193.179688 167.351562 199.59375 174.074219 201.878906 C 178.328125 203.328125 183.71875 203.601562 187.636719 202.570312 C 192.589844 201.269531 196.109375 199.316406 199.351562 196.078125 C 202.722656 192.703125 204.582031 189.257812 205.972656 183.800781 L 206.652344 181.132812 L 205.265625 179.074219 C 201.96875 174.167969 197.601562 169.296875 193.085938 165.492188 C 191.261719 163.953125 189.769531 162.753906 189.769531 162.828125 M 68.929688 227.996094 L 68.925781 231.761719 L 67.042969 233.789062 C 66.007812 234.90625 64.089844 236.792969 62.785156 237.980469 L 60.410156 240.140625 L 58.835938 240.203125 L 57.257812 240.265625 L 57.140625 249.101562 L 60.320312 249.101562 L 63.261719 251.832031 C 64.878906 253.332031 66.816406 255.21875 67.566406 256.019531 L 68.929688 257.472656 L 68.929688 265.023438 L 77.707031 265.023438 L 77.597656 260.609375 C 77.457031 254.847656 77.230469 254.0625 74.957031 251.460938 C 74.078125 250.453125 72.179688 248.519531 70.742188 247.167969 L 68.125 244.703125 L 72.113281 240.738281 C 77.460938 235.425781 77.640625 235.007812 77.648438 227.777344 L 77.652344 224.234375 L 68.929688 224.234375 L 68.929688 227.996094 M 287.636719 224.378906 C 287.417969 224.601562 287.46875 229.738281 287.71875 232.085938 C 288.074219 235.476562 288.511719 236.175781 293.117188 240.773438 L 297.03125 244.675781 L 292.941406 248.796875 C 289.269531 252.5 288.804688 253.046875 288.378906 254.214844 C 287.832031 255.703125 287.507812 258.726562 287.5 262.460938 L 287.492188 265.023438 L 296.433594 265.023438 L 296.433594 257.277344 L 299.542969 254.207031 C 301.253906 252.519531 303.175781 250.679688 303.820312 250.121094 C 304.96875 249.117188 305.015625 249.101562 306.492188 249.101562 L 307.996094 249.101562 L 307.996094 240.15625 L 304.699219 240.15625 L 300.566406 236.089844 L 296.433594 232.019531 L 296.433594 224.234375 L 292.109375 224.234375 C 289.726562 224.234375 287.71875 224.300781 287.636719 224.378906 M 131.09375 260.550781 L 131.09375 265.242188 L 140.480469 265.242188 L 140.363281 255.972656 L 135.730469 255.914062 L 131.09375 255.851562 L 131.09375 260.550781 M 190.425781 260.550781 L 190.425781 265.242188 L 199.585938 265.242188 L 199.585938 255.863281 L 190.425781 255.863281 L 190.425781 260.550781 "/>
<path style=" stroke:none;fill-rule:evenodd;fill:rgb(88.627451%,42.352941%,23.529412%);fill-opacity:1;" d="M 157.167969 47.292969 C 156.453125 47.328125 155.742188 47.464844 155.585938 47.589844 C 155.199219 47.914062 155.179688 56.71875 155.566406 57.105469 C 155.9375 57.476562 164.707031 57.476562 165.078125 57.105469 C 165.457031 56.726562 165.449219 47.914062 165.066406 47.597656 C 164.792969 47.371094 159.5625 47.167969 157.167969 47.292969 M 155.742188 52.351562 L 155.742188 56.929688 L 164.902344 56.929688 L 164.902344 47.769531 L 155.742188 47.769531 L 155.742188 52.351562 M 182.734375 49.097656 C 182.449219 49.265625 182.355469 49.605469 182.355469 50.496094 C 182.355469 51.140625 182.453125 51.730469 182.570312 51.804688 C 182.691406 51.878906 182.789062 52.566406 182.789062 53.332031 C 182.789062 54.097656 182.894531 54.789062 183.019531 54.867188 C 183.175781 54.960938 183.203125 56.3125 183.105469 59.078125 C 182.886719 65.160156 182.945312 64.664062 182.398438 64.746094 C 181.917969 64.8125 181.917969 64.804688 181.917969 61.117188 C 181.917969 58.242188 181.851562 57.367188 181.617188 57.171875 C 181.40625 56.996094 179.964844 56.941406 176.871094 56.980469 L 172.429688 57.039062 L 172.363281 58.078125 C 172.324219 58.695312 172.035156 59.605469 171.652344 60.335938 C 171.226562 61.148438 171.011719 61.875 171.011719 62.507812 L 171.011719 63.460938 L 168.230469 63.53125 C 165.472656 63.597656 165.480469 63.597656 168.992188 63.644531 L 172.539062 63.695312 L 172.539062 57.367188 L 181.480469 57.367188 L 181.480469 65.003906 L 180.5 65.003906 C 179.523438 65.003906 179.519531 65.003906 179.519531 65.765625 L 179.519531 66.527344 L 174.5 66.527344 L 174.5 72.847656 L 165.449219 72.976562 L 170.136719 72.96875 L 174.828125 72.964844 L 174.890625 69.964844 L 174.949219 66.964844 L 179.289062 66.964844 L 179.347656 70.617188 L 179.410156 74.273438 L 180.808594 74.335938 C 181.757812 74.382812 182.398438 74.539062 182.796875 74.820312 C 183.28125 75.167969 183.84375 75.25 186.085938 75.308594 L 188.789062 75.378906 L 185.695312 75.425781 C 182.355469 75.476562 181.917969 75.621094 181.917969 76.671875 C 181.917969 76.957031 181.820312 77.25 181.699219 77.324219 C 181.582031 77.398438 181.480469 77.695312 181.480469 77.980469 C 181.480469 78.265625 181.382812 78.5625 181.265625 78.636719 C 181.144531 78.710938 181.046875 79.058594 181.046875 79.410156 L 181.046875 80.050781 L 176.945312 80.050781 C 174.046875 80.050781 172.765625 80.128906 172.582031 80.316406 C 172.210938 80.683594 172.210938 89.453125 172.582031 89.824219 C 172.953125 90.195312 181.722656 90.195312 182.089844 89.824219 C 182.273438 89.644531 182.355469 88.507812 182.355469 86.117188 C 182.355469 82.980469 182.390625 82.671875 182.734375 82.671875 C 183.085938 82.671875 183.117188 83.011719 183.117188 86.808594 L 183.117188 90.949219 L 179.851562 91.007812 C 176.714844 91.066406 176.578125 91.085938 176.34375 91.554688 C 176.210938 91.824219 175.953125 92.21875 175.773438 92.429688 C 175.59375 92.640625 175.183594 93.367188 174.859375 94.046875 C 174.539062 94.722656 174.128906 95.394531 173.949219 95.542969 C 173.773438 95.691406 173.628906 95.929688 173.628906 96.078125 C 173.628906 96.222656 173.433594 96.519531 173.195312 96.738281 C 172.953125 96.957031 172.757812 97.25 172.757812 97.394531 C 172.757812 97.535156 172.5625 97.832031 172.320312 98.046875 C 172.082031 98.265625 171.882812 98.558594 171.882812 98.703125 C 171.882812 98.847656 171.6875 99.140625 171.449219 99.355469 C 171.207031 99.574219 171.011719 99.867188 171.011719 100.003906 C 171.011719 100.144531 170.71875 100.539062 170.359375 100.882812 C 169.996094 101.230469 169.703125 101.617188 169.703125 101.742188 C 169.703125 102.042969 159.851562 111.898438 159.554688 111.898438 C 159.433594 111.898438 158.277344 112.960938 156.984375 114.253906 C 154.761719 116.484375 153.5625 118.191406 153.5625 119.121094 C 153.5625 119.335938 153.464844 119.566406 153.34375 119.640625 C 153.222656 119.714844 153.125 120.011719 153.125 120.296875 C 153.125 120.582031 153.027344 120.878906 152.90625 120.953125 C 152.773438 121.035156 152.6875 122.695312 152.6875 125.203125 C 152.6875 127.714844 152.773438 129.375 152.90625 129.457031 C 153.027344 129.53125 153.125 129.757812 153.125 129.960938 C 153.125 130.4375 155.460938 135.132812 155.867188 135.46875 C 156.039062 135.613281 156.179688 135.84375 156.179688 135.988281 C 156.179688 136.128906 156.472656 136.53125 156.832031 136.875 C 157.191406 137.21875 157.488281 137.605469 157.488281 137.734375 C 157.488281 138.035156 165.816406 146.363281 166.113281 146.363281 C 166.242188 146.363281 166.726562 146.757812 167.195312 147.234375 C 167.664062 147.714844 168.15625 148.109375 168.289062 148.109375 C 168.421875 148.109375 168.8125 148.402344 169.160156 148.761719 C 169.503906 149.121094 169.898438 149.417969 170.035156 149.417969 C 170.175781 149.417969 170.464844 149.613281 170.683594 149.851562 C 170.902344 150.09375 171.199219 150.289062 171.347656 150.289062 C 171.492188 150.289062 171.738281 150.441406 171.890625 150.628906 C 172.046875 150.8125 172.582031 151.152344 173.082031 151.378906 C 173.585938 151.609375 174.121094 151.945312 174.273438 152.132812 C 174.429688 152.320312 174.675781 152.472656 174.820312 152.472656 C 174.96875 152.472656 175.265625 152.667969 175.484375 152.90625 C 175.699219 153.148438 175.996094 153.34375 176.136719 153.34375 C 176.28125 153.34375 176.574219 153.539062 176.792969 153.78125 C 177.007812 154.019531 177.304688 154.214844 177.445312 154.214844 C 177.589844 154.214844 177.882812 154.410156 178.101562 154.652344 C 178.316406 154.890625 178.613281 155.085938 178.753906 155.085938 C 178.898438 155.085938 179.191406 155.285156 179.410156 155.523438 C 179.625 155.765625 179.921875 155.960938 180.066406 155.960938 C 180.207031 155.960938 180.5 156.15625 180.71875 156.398438 C 180.933594 156.636719 181.230469 156.832031 181.371094 156.832031 C 181.515625 156.832031 181.808594 157.03125 182.027344 157.269531 C 182.242188 157.507812 182.535156 157.707031 182.675781 157.707031 C 182.8125 157.707031 183.210938 158 183.554688 158.359375 C 183.898438 158.71875 184.289062 159.015625 184.421875 159.015625 C 184.554688 159.015625 185.046875 159.40625 185.515625 159.886719 C 185.984375 160.367188 186.476562 160.757812 186.609375 160.757812 C 186.742188 160.757812 187.136719 161.054688 187.480469 161.414062 C 187.824219 161.773438 188.21875 162.066406 188.351562 162.066406 C 188.832031 162.066406 190.207031 163.902344 190.207031 164.539062 C 190.207031 164.933594 190.878906 166.269531 191.007812 166.136719 C 191.09375 166.054688 190.652344 164.859375 189.824219 162.949219 C 189.75 162.769531 191.195312 163.902344 193.042969 165.457031 C 197.597656 169.292969 201.960938 174.152344 205.257812 179.058594 L 206.636719 181.113281 L 206.132812 183.203125 C 205.859375 184.355469 205.582031 185.4375 205.515625 185.605469 C 205.445312 185.804688 205.492188 185.855469 205.65625 185.757812 C 205.796875 185.671875 205.914062 185.367188 205.914062 185.082031 C 205.914062 184.792969 206.011719 184.5 206.128906 184.425781 C 206.25 184.351562 206.347656 183.960938 206.347656 183.554688 C 206.347656 183.148438 206.445312 182.753906 206.566406 182.679688 C 206.699219 182.597656 206.785156 180.71875 206.785156 177.773438 C 206.785156 174.828125 206.699219 172.949219 206.566406 172.863281 C 206.445312 172.789062 206.347656 172.203125 206.347656 171.558594 C 206.347656 170.910156 206.25 170.324219 206.128906 170.25 C 206.011719 170.175781 205.914062 169.683594 205.914062 169.160156 C 205.914062 168.632812 205.8125 168.140625 205.695312 168.066406 C 205.574219 167.992188 205.476562 167.699219 205.476562 167.414062 C 205.476562 167.125 205.378906 166.832031 205.257812 166.757812 C 205.136719 166.683594 205.039062 166.390625 205.039062 166.101562 C 205.039062 165.816406 204.941406 165.523438 204.820312 165.449219 C 204.699219 165.375 204.601562 165.125 204.601562 164.898438 C 204.601562 164.667969 204.40625 164.132812 204.167969 163.703125 C 203.925781 163.277344 203.730469 162.792969 203.730469 162.628906 C 203.730469 162.464844 203.433594 161.765625 203.070312 161.074219 C 202.410156 159.820312 202.410156 159.820312 202.851562 159.347656 C 203.09375 159.089844 203.292969 158.773438 203.292969 158.644531 C 203.292969 158.519531 203.441406 158.289062 203.625 158.140625 C 203.804688 157.988281 204.246094 157.253906 204.601562 156.507812 C 204.960938 155.757812 205.402344 155.023438 205.582031 154.871094 C 205.761719 154.722656 205.914062 154.425781 205.914062 154.210938 C 205.914062 153.996094 206.207031 153.265625 206.566406 152.582031 C 206.925781 151.894531 207.21875 151.15625 207.21875 150.933594 C 207.21875 150.714844 207.320312 150.472656 207.4375 150.398438 C 207.558594 150.324219 207.65625 150.03125 207.65625 149.746094 C 207.65625 149.457031 207.753906 149.164062 207.875 149.089844 C 207.996094 149.015625 208.09375 148.722656 208.09375 148.433594 C 208.09375 148.148438 208.191406 147.855469 208.3125 147.78125 C 208.433594 147.707031 208.527344 147.316406 208.527344 146.910156 C 208.527344 146.503906 208.628906 146.109375 208.75 146.035156 C 208.867188 145.960938 208.964844 145.570312 208.964844 145.164062 C 208.964844 144.757812 209.0625 144.363281 209.183594 144.289062 C 209.304688 144.214844 209.402344 143.429688 209.402344 142.546875 C 209.402344 141.660156 209.5 140.875 209.621094 140.800781 C 209.753906 140.71875 209.839844 139.058594 209.839844 136.546875 C 209.839844 134.039062 209.753906 132.375 209.621094 132.292969 C 209.5 132.21875 209.402344 131.628906 209.402344 130.984375 C 209.402344 130.339844 209.304688 129.75 209.183594 129.675781 C 209.0625 129.601562 208.964844 129.113281 208.964844 128.585938 C 208.964844 128.058594 208.867188 127.570312 208.75 127.496094 C 208.628906 127.421875 208.527344 127.027344 208.527344 126.621094 C 208.527344 126.21875 208.433594 125.824219 208.3125 125.75 C 208.191406 125.675781 208.09375 125.382812 208.09375 125.097656 C 208.09375 124.808594 207.996094 124.515625 207.875 124.441406 C 207.753906 124.367188 207.65625 124.074219 207.65625 123.789062 C 207.65625 123.5 207.558594 123.207031 207.4375 123.132812 C 207.320312 123.058594 207.21875 122.816406 207.21875 122.597656 C 207.21875 122.375 206.925781 121.636719 206.566406 120.953125 C 206.207031 120.269531 205.914062 119.570312 205.914062 119.398438 C 205.914062 119.0625 205.539062 118.328125 205.058594 117.734375 C 204.890625 117.523438 204.640625 117.128906 204.507812 116.859375 C 204.363281 116.566406 204.023438 116.34375 203.65625 116.300781 C 202.519531 116.167969 202.421875 116.457031 202.421875 119.875 C 202.421875 121.722656 202.332031 123.054688 202.203125 123.132812 C 202.085938 123.207031 201.984375 123.894531 201.984375 124.660156 C 201.984375 125.425781 201.886719 126.113281 201.769531 126.1875 C 201.648438 126.261719 201.546875 126.554688 201.546875 126.839844 C 201.546875 127.125 201.453125 127.421875 201.332031 127.496094 C 201.210938 127.570312 201.113281 127.863281 201.113281 128.148438 C 201.113281 128.433594 201.015625 128.730469 200.894531 128.804688 C 200.773438 128.878906 200.675781 129.113281 200.675781 129.324219 C 200.675781 129.757812 199.804688 131.570312 199.320312 132.140625 C 199.148438 132.34375 198.847656 132.855469 198.65625 133.277344 C 198.460938 133.699219 198.054688 134.28125 197.746094 134.570312 C 197.4375 134.859375 197.1875 135.203125 197.1875 135.335938 C 197.1875 135.640625 193.4375 139.382812 193.132812 139.382812 C 193.007812 139.382812 192.621094 139.679688 192.277344 140.039062 C 191.933594 140.398438 191.554688 140.691406 191.433594 140.691406 C 191.316406 140.691406 190.988281 140.90625 190.710938 141.164062 L 190.207031 141.640625 L 189.664062 141.132812 C 189.070312 140.574219 187.152344 136.875 187.152344 136.285156 C 187.152344 136.082031 187.054688 135.859375 186.9375 135.785156 C 186.816406 135.710938 186.714844 135.414062 186.714844 135.128906 C 186.714844 134.84375 186.621094 134.550781 186.5 134.476562 C 186.378906 134.398438 186.28125 134.105469 186.28125 133.820312 C 186.28125 133.535156 186.183594 133.242188 186.0625 133.167969 C 185.941406 133.09375 185.84375 132.796875 185.84375 132.511719 C 185.84375 132.226562 185.746094 131.933594 185.625 131.859375 C 185.507812 131.785156 185.40625 131.195312 185.40625 130.546875 C 185.40625 129.902344 185.308594 129.3125 185.191406 129.238281 C 185.058594 129.160156 184.972656 127.789062 184.972656 125.859375 C 184.972656 123.929688 185.058594 122.558594 185.191406 122.476562 C 185.308594 122.402344 185.40625 121.914062 185.40625 121.386719 C 185.40625 120.863281 185.507812 120.371094 185.625 120.296875 C 185.746094 120.222656 185.84375 119.929688 185.84375 119.640625 C 185.84375 119.355469 185.941406 119.0625 186.0625 118.988281 C 186.183594 118.914062 186.28125 118.6875 186.28125 118.484375 C 186.28125 118.007812 188.617188 113.316406 189.019531 112.976562 C 189.195312 112.835938 189.335938 112.597656 189.335938 112.453125 C 189.335938 112.304688 189.53125 112.007812 189.769531 111.789062 C 190.011719 111.574219 190.207031 111.277344 190.207031 111.136719 C 190.207031 110.992188 190.402344 110.699219 190.640625 110.480469 C 190.882812 110.261719 191.078125 109.976562 191.078125 109.84375 C 191.078125 109.714844 193.191406 107.496094 195.773438 104.917969 C 200.222656 100.476562 200.519531 100.125 201.445312 98.265625 C 201.980469 97.183594 202.421875 96.132812 202.421875 95.933594 C 202.421875 95.730469 202.519531 95.503906 202.640625 95.429688 C 202.773438 95.347656 202.859375 93.46875 202.859375 90.523438 C 202.859375 87.578125 202.773438 85.699219 202.640625 85.613281 C 202.519531 85.539062 202.421875 85.148438 202.421875 84.742188 C 202.421875 84.335938 202.324219 83.945312 202.203125 83.871094 C 202.085938 83.796875 201.984375 83.304688 201.984375 82.777344 C 201.984375 82.253906 201.886719 81.761719 201.769531 81.6875 C 201.648438 81.613281 201.546875 81.125 201.546875 80.597656 C 201.546875 80.074219 201.453125 79.582031 201.332031 79.507812 C 201.210938 79.433594 201.113281 79.039062 201.113281 78.636719 C 201.113281 78.230469 201.015625 77.835938 200.894531 77.761719 C 200.773438 77.6875 200.675781 77.394531 200.675781 77.109375 C 200.675781 76.824219 200.578125 76.527344 200.457031 76.453125 C 200.339844 76.378906 200.242188 76.085938 200.242188 75.800781 C 200.242188 75.511719 200.140625 75.21875 200.023438 75.144531 C 199.902344 75.070312 199.804688 74.777344 199.804688 74.492188 C 199.804688 74.203125 199.707031 73.910156 199.585938 73.835938 C 199.464844 73.761719 199.367188 73.511719 199.367188 73.285156 C 199.367188 73.054688 199.171875 72.519531 198.933594 72.089844 C 198.691406 71.664062 198.496094 71.171875 198.496094 71 C 198.496094 70.828125 198.300781 70.335938 198.058594 69.910156 C 197.820312 69.484375 197.621094 69.007812 197.621094 68.859375 C 197.621094 68.511719 195.375 64.011719 194.953125 63.515625 C 194.78125 63.3125 194.480469 62.792969 194.28125 62.359375 C 194.085938 61.925781 193.773438 61.449219 193.59375 61.296875 C 193.410156 61.148438 193.261719 60.898438 193.261719 60.75 C 193.261719 60.597656 193.109375 60.347656 192.921875 60.195312 C 192.738281 60.039062 192.402344 59.511719 192.175781 59.023438 C 191.953125 58.53125 191.515625 57.890625 191.207031 57.601562 C 190.894531 57.3125 190.640625 56.960938 190.640625 56.824219 C 190.640625 56.6875 190.347656 56.292969 189.988281 55.949219 C 189.628906 55.605469 189.335938 55.21875 189.335938 55.085938 C 189.335938 54.859375 183.4375 48.855469 183.222656 48.867188 C 183.164062 48.871094 182.945312 48.972656 182.734375 49.097656 M 158.808594 186.429688 C 158.800781 186.933594 158.894531 187.40625 159.015625 187.480469 C 159.136719 187.554688 159.230469 187.78125 159.230469 187.984375 C 159.230469 188.570312 161.148438 192.269531 161.746094 192.828125 C 162.042969 193.105469 162.289062 193.445312 162.289062 193.574219 C 162.289062 193.882812 167.128906 198.710938 167.4375 198.710938 C 167.566406 198.710938 167.851562 198.910156 168.066406 199.148438 C 168.285156 199.390625 168.582031 199.585938 168.726562 199.585938 C 168.875 199.585938 169.113281 199.730469 169.257812 199.902344 C 169.59375 200.3125 172.535156 201.769531 173.019531 201.769531 C 173.21875 201.769531 173.445312 201.863281 173.519531 201.984375 C 173.59375 202.105469 173.886719 202.203125 174.175781 202.203125 C 174.460938 202.203125 174.753906 202.300781 174.828125 202.421875 C 174.902344 202.542969 175.277344 202.636719 175.660156 202.632812 C 176.175781 202.625 175.863281 202.460938 174.464844 202.007812 C 167.578125 199.757812 161.238281 193.542969 159.3125 187.152344 C 158.84375 185.59375 158.820312 185.558594 158.808594 186.429688 M 202.980469 191.449219 C 199.675781 197.058594 194.574219 200.769531 187.742188 202.535156 C 186.019531 202.980469 185.867188 203.054688 186.648438 203.066406 C 187.152344 203.070312 187.625 202.976562 187.699219 202.859375 C 187.773438 202.738281 188.164062 202.640625 188.570312 202.640625 C 188.976562 202.640625 189.367188 202.542969 189.441406 202.421875 C 189.515625 202.300781 189.765625 202.203125 189.996094 202.203125 C 190.222656 202.203125 190.761719 202.007812 191.1875 201.769531 C 191.617188 201.527344 192.089844 201.332031 192.242188 201.332031 C 192.652344 201.332031 194.707031 200.269531 195.015625 199.902344 C 195.15625 199.730469 195.398438 199.585938 195.542969 199.585938 C 195.691406 199.585938 195.988281 199.390625 196.207031 199.148438 C 196.421875 198.910156 196.707031 198.710938 196.84375 198.710938 C 197.152344 198.710938 201.984375 193.875 201.984375 193.5625 C 201.984375 193.433594 202.179688 193.148438 202.421875 192.933594 C 202.660156 192.714844 202.859375 192.417969 202.859375 192.273438 C 202.859375 192.125 203.007812 191.882812 203.1875 191.730469 C 203.589844 191.398438 204.238281 190.082031 204.132812 189.8125 C 204.09375 189.707031 203.574219 190.441406 202.980469 191.449219 M 102.492188 222.621094 C 102.175781 222.789062 101.753906 223.171875 101.558594 223.46875 C 101.203125 224.015625 101.203125 224.015625 97.167969 224.015625 C 93.113281 224.015625 92.765625 224.070312 91.765625 224.875 C 90.710938 225.726562 90.734375 225.21875 90.792969 245.941406 L 90.851562 265.351562 L 99.792969 265.351562 L 99.851562 249.660156 C 99.898438 235.472656 99.941406 233.933594 100.261719 233.574219 C 100.601562 233.203125 101.375 233.179688 113.292969 233.125 L 125.96875 233.066406 L 125.96875 224.125 L 117.011719 224.066406 L 108.058594 224.011719 L 107.207031 223.140625 C 106.359375 222.273438 106.355469 222.269531 104.710938 222.292969 C 103.769531 222.308594 102.820312 222.445312 102.492188 222.621094 M 68.636719 224.160156 C 68.558594 224.242188 68.492188 225.660156 68.492188 227.3125 C 68.492188 229.078125 68.402344 230.371094 68.273438 230.453125 C 68.152344 230.527344 68.054688 230.996094 68.054688 231.503906 C 68.054688 232.394531 67.960938 232.511719 64.835938 235.632812 C 63.066406 237.402344 61.511719 238.847656 61.386719 238.847656 C 61.261719 238.847656 60.875 239.144531 60.53125 239.503906 C 60.1875 239.863281 60.011719 240.15625 60.144531 240.15625 C 60.507812 240.15625 64.890625 236.109375 67.042969 233.789062 L 68.925781 231.761719 L 68.929688 228 L 68.929688 224.246094 L 77.542969 224.117188 L 73.164062 224.066406 C 70.753906 224.039062 68.71875 224.082031 68.636719 224.160156 M 147.9375 224.335938 C 147.660156 224.484375 147.191406 224.84375 146.886719 225.128906 C 145.652344 226.289062 145.703125 225.339844 145.761719 246.160156 L 145.816406 265.351562 L 154.761719 265.351562 L 154.816406 249.875 L 154.875 234.398438 L 155.457031 233.789062 L 156.042969 233.175781 L 165.128906 233.175781 C 173.65625 233.175781 174.238281 233.203125 174.574219 233.574219 C 174.886719 233.917969 174.9375 234.578125 174.9375 238.230469 C 174.9375 242.082031 174.898438 242.523438 174.539062 242.851562 C 174.183594 243.171875 173.300781 243.210938 166.496094 243.210938 C 160.261719 243.210938 158.804688 243.265625 158.597656 243.511719 C 158.425781 243.71875 158.367188 245.105469 158.410156 248.039062 L 158.46875 252.265625 L 166.308594 252.320312 C 173.191406 252.371094 174.195312 252.421875 174.539062 252.734375 C 174.894531 253.058594 174.933594 253.636719 174.988281 259.21875 L 175.046875 265.351562 L 183.992188 265.351562 L 184.046875 245.941406 C 184.105469 225.21875 184.128906 225.726562 183.074219 224.875 C 181.984375 224 182.292969 224.015625 165.070312 224.035156 C 152.113281 224.054688 148.324219 224.121094 147.9375 224.335938 M 208.605469 224.320312 C 207.832031 224.75 207.464844 225.117188 207.117188 225.820312 C 206.828125 226.398438 206.785156 228.816406 206.785156 244.519531 C 206.785156 264.203125 206.71875 263.160156 208.042969 264.433594 L 208.664062 265.027344 L 226.644531 264.972656 L 244.628906 264.914062 L 244.628906 256.410156 L 230.289062 256.351562 L 215.945312 256.296875 L 215.945312 245.097656 C 215.945312 234.527344 215.96875 233.878906 216.34375 233.539062 C 216.703125 233.214844 217.679688 233.175781 225.800781 233.175781 C 234.242188 233.175781 234.878906 233.203125 235.210938 233.570312 C 235.5 233.890625 235.574219 234.59375 235.625 237.441406 L 235.6875 240.921875 L 244.628906 240.921875 L 244.746094 225.898438 L 244.148438 225.277344 C 242.878906 223.953125 243.792969 224.015625 225.671875 224.035156 C 213.273438 224.054688 208.957031 224.125 208.605469 224.320312 M 292.128906 224.175781 L 296.433594 224.246094 L 296.433594 232.019531 L 300.566406 236.089844 C 302.839844 238.328125 304.828125 240.15625 304.984375 240.15625 C 305.136719 240.15625 303.328125 238.21875 300.964844 235.851562 L 296.660156 231.542969 L 296.542969 224.125 L 292.179688 224.117188 L 287.820312 224.109375 L 292.128906 224.175781 M 287.519531 232.347656 C 287.503906 233.269531 287.589844 234.085938 287.710938 234.160156 C 287.828125 234.234375 287.925781 234.464844 287.925781 234.675781 C 287.925781 235.753906 289.144531 237.351562 292.609375 240.808594 C 294.59375 242.785156 296.214844 244.554688 296.214844 244.738281 C 296.214844 244.921875 294.59375 246.6875 292.609375 248.667969 C 289.144531 252.125 287.925781 253.722656 287.925781 254.804688 C 287.925781 255.011719 287.828125 255.242188 287.710938 255.316406 C 287.585938 255.394531 287.503906 256.285156 287.523438 257.347656 L 287.550781 259.242188 L 287.71875 257.390625 C 288.035156 253.917969 288.308594 253.46875 292.941406 248.796875 L 297.03125 244.675781 L 293.117188 240.773438 C 288.617188 236.285156 288.046875 235.394531 287.730469 232.386719 L 287.550781 230.667969 L 287.519531 232.347656 M 77.394531 233.015625 C 77.105469 235.484375 76.472656 236.40625 72.113281 240.738281 L 68.125 244.703125 L 70.742188 247.167969 C 75.832031 251.960938 76.996094 253.605469 77.4375 256.601562 L 77.597656 257.714844 L 77.625 256.367188 C 77.640625 255.625 77.554688 254.953125 77.4375 254.878906 C 77.316406 254.804688 77.214844 254.570312 77.214844 254.355469 C 77.214844 253.515625 76.433594 252.558594 72.753906 248.886719 C 70.648438 246.789062 68.929688 244.921875 68.929688 244.738281 C 68.929688 244.554688 70.550781 242.785156 72.53125 240.808594 C 75.578125 237.773438 76.257812 236.972656 76.910156 235.660156 C 77.554688 234.355469 77.667969 233.914062 77.609375 232.933594 L 77.542969 231.761719 L 77.394531 233.015625 M 249.6875 239.859375 C 249.605469 239.945312 249.539062 240.921875 249.539062 242.035156 C 249.539062 244.003906 249.523438 244.0625 248.917969 244.496094 C 248.425781 244.84375 247.886719 244.953125 246.355469 245.003906 L 244.410156 245.066406 L 244.347656 247.542969 C 244.308594 249.183594 244.371094 250.121094 244.539062 250.324219 C 244.726562 250.550781 245.402344 250.628906 247.15625 250.628906 L 249.523438 250.628906 L 249.644531 255.316406 L 254.664062 255.316406 L 254.726562 253.328125 C 254.804688 250.757812 254.898438 250.667969 257.503906 250.582031 L 259.460938 250.519531 L 259.460938 245.066406 L 257.125 245.003906 L 254.785156 244.941406 L 254.726562 242.386719 L 254.664062 239.832031 L 252.253906 239.769531 C 250.925781 239.734375 249.773438 239.777344 249.6875 239.859375 M 268.886719 240.296875 C 268.800781 240.378906 268.730469 241.460938 268.730469 242.695312 L 268.730469 244.941406 L 263.605469 245.066406 L 263.605469 250.082031 L 266.160156 250.144531 L 268.71875 250.207031 L 268.84375 255.316406 L 273.859375 255.316406 L 273.917969 252.980469 L 273.980469 250.644531 L 278.65625 250.519531 L 278.65625 245.066406 L 276.320312 245.003906 L 273.980469 244.941406 L 273.917969 242.605469 L 273.859375 240.265625 L 271.449219 240.207031 C 270.121094 240.171875 268.96875 240.210938 268.886719 240.296875 M 307.996094 244.585938 L 307.996094 249.101562 L 306.492188 249.101562 C 305.015625 249.101562 304.96875 249.117188 303.820312 250.121094 C 303.175781 250.679688 301.253906 252.519531 299.542969 254.207031 L 296.433594 257.277344 L 296.433594 265.023438 L 291.917969 265.023438 C 288.84375 265.023438 287.476562 265.09375 287.625 265.246094 C 287.769531 265.386719 289.449219 265.449219 292.195312 265.410156 L 296.542969 265.351562 L 296.660156 257.5 L 300.308594 253.84375 C 302.3125 251.835938 304.0625 250.191406 304.195312 250.191406 C 304.328125 250.191406 304.609375 250 304.824219 249.761719 C 305.125 249.433594 305.554688 249.324219 306.765625 249.273438 L 308.324219 249.210938 L 308.382812 244.863281 C 308.417969 242.113281 308.359375 240.433594 308.21875 240.292969 C 308.066406 240.140625 307.996094 241.511719 307.996094 244.585938 M 113.300781 242.988281 C 113.175781 243.113281 111.046875 243.226562 108.292969 243.261719 L 103.5 243.320312 L 103.5 252.265625 L 125.53125 252.265625 L 125.53125 243.320312 L 121.394531 243.261719 C 119.078125 243.226562 117.160156 243.105469 117.042969 242.988281 C 116.765625 242.710938 113.578125 242.710938 113.300781 242.988281 M 58.457031 249.253906 C 59.117188 249.296875 59.902344 249.441406 60.203125 249.582031 C 60.503906 249.722656 62.492188 251.5625 64.621094 253.664062 L 68.492188 257.492188 L 68.492188 261.214844 C 68.492188 263.820312 68.570312 265.015625 68.753906 265.199219 C 69.085938 265.53125 77.339844 265.574219 77.542969 265.242188 C 77.632812 265.097656 76.164062 265.023438 73.304688 265.023438 L 68.929688 265.023438 L 68.929688 257.472656 L 67.566406 256.019531 C 66.816406 255.21875 64.878906 253.332031 63.261719 251.832031 L 60.320312 249.101562 L 58.789062 249.140625 C 57.367188 249.179688 57.34375 249.1875 58.457031 249.253906 M 190.308594 260.714844 L 190.316406 265.351562 L 191.367188 265.417969 C 191.945312 265.453125 192.757812 265.675781 193.175781 265.910156 C 193.636719 266.171875 194.34375 266.332031 195.007812 266.332031 C 195.667969 266.332031 196.371094 266.171875 196.835938 265.910156 C 197.253906 265.675781 198.066406 265.453125 198.644531 265.417969 L 199.695312 265.351562 L 199.703125 260.660156 L 199.707031 255.972656 L 199.578125 265.242188 L 190.433594 265.242188 L 190.367188 260.660156 L 190.300781 256.082031 L 190.308594 260.714844 "/>
</g>
</svg>
