<?xml version="1.0" encoding="UTF-8"?>
<svg xmlns="http://www.w3.org/2000/svg" xmlns:xlink="http://www.w3.org/1999/xlink" width="816px" height="816px" viewBox="0 0 816 816" version="1.1">
<g id="surface1">
<path style=" stroke:none;fill-rule:evenodd;fill:rgb(19.607843%,56.470588%,56.078431%);fill-opacity:1;" d="M 352.039062 118.332031 L 352.039062 128.6875 L 372.746094 128.6875 L 372.746094 107.976562 L 352.039062 107.976562 L 352.039062 118.332031 M 390.003906 136.820312 L 390.003906 143.972656 L 373.734375 143.972656 L 373.734375 164.679688 L 394.441406 164.679688 L 394.441406 150.378906 L 405.78125 150.378906 L 405.78125 148.65625 C 405.78125 146.9375 405.792969 146.929688 408 146.929688 L 410.21875 146.929688 L 410.21875 129.671875 L 390.003906 129.671875 L 390.003906 136.820312 M 428.953125 368.054688 C 428.953125 368.214844 429.394531 369.210938 429.933594 370.265625 C 430.46875 371.320312 431.492188 374.140625 432.207031 376.53125 C 436.28125 390.210938 431.050781 406.214844 420.871094 411.210938 C 414.355469 414.414062 403.535156 415.066406 396.414062 412.6875 C 389.28125 410.304688 382.699219 405.371094 380.410156 400.691406 C 376.257812 392.203125 377.070312 379.449219 382.230469 372.144531 C 382.640625 371.570312 382.671875 371.132812 382.332031 370.792969 C 381.058594 369.519531 371.601562 376.742188 367.796875 381.894531 C 359.96875 392.492188 356.503906 410.332031 359.921875 422.460938 C 363.921875 436.664062 378.28125 451.160156 393.476562 456.324219 C 403.089844 459.597656 415.277344 460.21875 424.132812 457.890625 C 435.332031 454.945312 443.285156 450.535156 450.609375 443.210938 C 458.234375 435.585938 462.4375 427.792969 465.578125 415.457031 L 467.113281 409.433594 L 463.980469 404.773438 C 456.53125 393.6875 446.65625 382.679688 436.445312 374.074219 C 432.324219 370.601562 428.953125 367.890625 428.953125 368.054688 M 155.804688 515.363281 L 155.800781 523.867188 L 151.542969 528.457031 C 149.203125 530.980469 144.871094 535.242188 141.917969 537.925781 L 136.546875 542.808594 L 132.988281 542.953125 L 129.425781 543.097656 L 129.160156 563.066406 L 136.347656 563.066406 L 142.992188 569.238281 C 146.648438 572.632812 151.027344 576.890625 152.722656 578.699219 L 155.804688 581.984375 L 155.804688 599.058594 L 175.652344 599.058594 L 175.402344 589.074219 C 175.082031 576.054688 174.570312 574.277344 169.433594 568.402344 C 167.441406 566.125 163.152344 561.753906 159.902344 558.691406 L 153.992188 553.121094 L 163.007812 544.164062 C 175.09375 532.152344 175.496094 531.210938 175.515625 514.867188 L 175.527344 506.855469 L 155.804688 506.855469 L 155.804688 515.363281 M 650.171875 507.1875 C 649.671875 507.683594 649.792969 519.300781 650.351562 524.601562 C 651.160156 532.265625 652.144531 533.847656 662.5625 544.242188 L 671.40625 553.066406 L 662.164062 562.378906 C 653.859375 570.75 652.8125 571.988281 651.847656 574.625 C 650.613281 577.988281 649.882812 584.820312 649.859375 593.265625 L 649.839844 599.058594 L 670.058594 599.058594 L 670.058594 581.542969 L 677.082031 574.605469 C 680.949219 570.792969 685.296875 566.636719 686.75 565.367188 C 689.347656 563.105469 689.449219 563.066406 692.789062 563.066406 L 696.1875 563.066406 L 696.1875 542.847656 L 688.742188 542.847656 L 679.398438 533.652344 L 670.058594 524.453125 L 670.058594 506.855469 L 660.277344 506.855469 C 654.898438 506.855469 650.351562 507.003906 650.171875 507.1875 M 296.324219 588.941406 L 296.324219 599.550781 L 317.542969 599.550781 L 317.277344 578.597656 L 306.800781 578.460938 L 296.324219 578.328125 L 296.324219 588.941406 M 430.433594 588.949219 L 430.433594 599.550781 L 451.140625 599.550781 L 451.140625 578.347656 L 430.433594 578.347656 L 430.433594 588.949219 "/>
<path style=" stroke:none;fill-rule:evenodd;fill:rgb(88.627451%,42.352941%,23.529412%);fill-opacity:1;" d="M 355.261719 106.898438 C 353.644531 106.980469 352.035156 107.285156 351.6875 107.574219 C 350.808594 108.300781 350.769531 128.207031 351.644531 129.082031 C 352.480469 129.917969 372.304688 129.917969 373.140625 129.082031 C 374 128.222656 373.976562 108.300781 373.117188 107.589844 C 372.492188 107.078125 360.675781 106.617188 355.261719 106.898438 M 352.039062 118.332031 L 352.039062 128.6875 L 372.746094 128.6875 L 372.746094 107.976562 L 352.039062 107.976562 L 352.039062 118.332031 M 413.054688 110.976562 C 412.402344 111.355469 412.191406 112.125 412.191406 114.136719 C 412.191406 115.597656 412.414062 116.933594 412.683594 117.101562 C 412.957031 117.265625 413.175781 118.820312 413.175781 120.550781 C 413.175781 122.28125 413.410156 123.84375 413.695312 124.019531 C 414.046875 124.234375 414.109375 127.289062 413.886719 133.539062 C 413.394531 147.285156 413.53125 146.167969 412.292969 146.347656 C 411.207031 146.503906 411.203125 146.484375 411.203125 138.148438 C 411.203125 131.652344 411.054688 129.667969 410.527344 129.230469 C 410.050781 128.835938 406.792969 128.707031 399.800781 128.800781 L 389.757812 128.933594 L 389.605469 131.277344 C 389.515625 132.671875 388.867188 134.734375 388.003906 136.378906 C 387.039062 138.214844 386.550781 139.863281 386.550781 141.292969 L 386.550781 143.449219 L 380.265625 143.601562 C 374.035156 143.753906 374.050781 143.757812 381.992188 143.863281 L 390.003906 143.972656 L 390.003906 129.671875 L 410.21875 129.671875 L 410.21875 146.929688 L 408 146.929688 C 405.792969 146.929688 405.78125 146.9375 405.78125 148.65625 L 405.78125 150.378906 L 394.441406 150.378906 L 394.441406 164.660156 L 373.980469 164.957031 L 384.578125 164.941406 L 395.179688 164.925781 L 395.316406 158.144531 L 395.453125 151.367188 L 405.265625 151.367188 L 405.398438 159.625 L 405.535156 167.882812 L 408.699219 168.03125 C 410.839844 168.132812 412.292969 168.488281 413.191406 169.125 C 414.289062 169.910156 415.5625 170.097656 420.628906 170.226562 L 426.734375 170.382812 L 419.746094 170.488281 C 412.191406 170.605469 411.203125 170.929688 411.203125 173.3125 C 411.203125 173.957031 410.984375 174.617188 410.710938 174.785156 C 410.441406 174.953125 410.21875 175.621094 410.21875 176.265625 C 410.21875 176.910156 409.996094 177.578125 409.726562 177.746094 C 409.453125 177.914062 409.234375 178.703125 409.234375 179.5 L 409.234375 180.949219 L 399.964844 180.949219 C 393.410156 180.949219 390.519531 181.125 390.101562 181.542969 C 389.265625 182.378906 389.265625 202.203125 390.101562 203.039062 C 390.9375 203.875 410.761719 203.875 411.597656 203.039062 C 412.007812 202.628906 412.191406 200.058594 412.191406 194.65625 C 412.191406 187.566406 412.269531 186.867188 413.054688 186.867188 C 413.84375 186.867188 413.917969 187.640625 413.917969 196.222656 L 413.917969 205.578125 L 406.535156 205.714844 C 399.445312 205.84375 399.132812 205.890625 398.601562 206.953125 C 398.300781 207.5625 397.722656 208.449219 397.316406 208.925781 C 396.914062 209.402344 395.984375 211.046875 395.253906 212.578125 C 394.523438 214.109375 393.597656 215.632812 393.195312 215.964844 C 392.796875 216.296875 392.46875 216.839844 392.46875 217.171875 C 392.46875 217.503906 392.023438 218.175781 391.484375 218.667969 C 390.941406 219.160156 390.496094 219.824219 390.496094 220.148438 C 390.496094 220.46875 390.054688 221.136719 389.511719 221.625 C 388.96875 222.117188 388.523438 222.78125 388.523438 223.105469 C 388.523438 223.429688 388.082031 224.09375 387.539062 224.585938 C 386.996094 225.074219 386.550781 225.734375 386.550781 226.046875 C 386.550781 226.363281 385.886719 227.257812 385.074219 228.035156 C 384.257812 228.816406 383.59375 229.691406 383.59375 229.980469 C 383.59375 230.652344 361.324219 252.933594 360.65625 252.933594 C 360.382812 252.933594 357.769531 255.332031 354.847656 258.261719 C 349.824219 263.300781 347.109375 267.160156 347.109375 269.261719 C 347.109375 269.742188 346.886719 270.269531 346.613281 270.4375 C 346.34375 270.605469 346.121094 271.273438 346.121094 271.917969 C 346.121094 272.5625 345.898438 273.230469 345.628906 273.398438 C 345.328125 273.582031 345.136719 277.335938 345.136719 283.011719 C 345.136719 288.6875 345.328125 292.441406 345.628906 292.625 C 345.898438 292.792969 346.121094 293.304688 346.121094 293.761719 C 346.121094 294.84375 351.398438 305.449219 352.316406 306.210938 C 352.707031 306.535156 353.023438 307.0625 353.023438 307.386719 C 353.023438 307.707031 353.691406 308.609375 354.503906 309.390625 C 355.316406 310.167969 355.984375 311.042969 355.984375 311.335938 C 355.984375 312.015625 374.808594 330.835938 375.484375 330.835938 C 375.769531 330.835938 376.863281 331.726562 377.925781 332.808594 C 378.984375 333.894531 380.097656 334.78125 380.398438 334.78125 C 380.699219 334.78125 381.582031 335.449219 382.363281 336.261719 C 383.140625 337.074219 384.035156 337.738281 384.347656 337.738281 C 384.664062 337.738281 385.320312 338.183594 385.8125 338.726562 C 386.304688 339.269531 386.976562 339.710938 387.308594 339.710938 C 387.640625 339.710938 388.195312 340.054688 388.542969 340.476562 C 388.894531 340.898438 390.105469 341.660156 391.234375 342.175781 C 392.367188 342.695312 393.578125 343.457031 393.929688 343.878906 C 394.277344 344.300781 394.832031 344.644531 395.164062 344.644531 C 395.496094 344.644531 396.167969 345.085938 396.660156 345.628906 C 397.152344 346.171875 397.816406 346.613281 398.140625 346.613281 C 398.460938 346.613281 399.128906 347.058594 399.617188 347.601562 C 400.109375 348.144531 400.773438 348.585938 401.097656 348.585938 C 401.421875 348.585938 402.085938 349.03125 402.578125 349.574219 C 403.066406 350.117188 403.734375 350.558594 404.054688 350.558594 C 404.378906 350.558594 405.042969 351.003906 405.535156 351.546875 C 406.023438 352.089844 406.691406 352.53125 407.015625 352.53125 C 407.335938 352.53125 408.003906 352.976562 408.492188 353.519531 C 408.984375 354.058594 409.648438 354.503906 409.972656 354.503906 C 410.296875 354.503906 410.960938 354.949219 411.453125 355.488281 C 411.941406 356.03125 412.601562 356.476562 412.914062 356.476562 C 413.230469 356.476562 414.125 357.140625 414.902344 357.957031 C 415.683594 358.769531 416.566406 359.433594 416.867188 359.433594 C 417.167969 359.433594 418.28125 360.320312 419.339844 361.40625 C 420.398438 362.492188 421.511719 363.378906 421.8125 363.378906 C 422.113281 363.378906 423 364.042969 423.777344 364.859375 C 424.558594 365.671875 425.445312 366.335938 425.75 366.335938 C 426.832031 366.335938 429.941406 370.484375 429.941406 371.925781 C 429.941406 372.8125 431.457031 375.832031 431.753906 375.535156 C 431.945312 375.34375 430.945312 372.648438 429.078125 368.324219 C 428.90625 367.925781 432.179688 370.480469 436.351562 373.996094 C 446.648438 382.671875 456.507812 393.652344 463.960938 404.746094 L 467.078125 409.382812 L 465.941406 414.113281 C 465.320312 416.71875 464.691406 419.160156 464.546875 419.542969 C 464.382812 419.988281 464.496094 420.109375 464.863281 419.886719 C 465.179688 419.6875 465.441406 419 465.441406 418.355469 C 465.441406 417.707031 465.664062 417.042969 465.933594 416.875 C 466.203125 416.707031 466.425781 415.820312 466.425781 414.902344 C 466.425781 413.984375 466.648438 413.097656 466.917969 412.929688 C 467.222656 412.742188 467.414062 408.496094 467.414062 401.835938 C 467.414062 395.175781 467.222656 390.929688 466.917969 390.742188 C 466.648438 390.574219 466.425781 389.246094 466.425781 387.785156 C 466.425781 386.324219 466.203125 384.996094 465.933594 384.828125 C 465.664062 384.660156 465.441406 383.550781 465.441406 382.363281 C 465.441406 381.171875 465.21875 380.0625 464.949219 379.894531 C 464.675781 379.726562 464.453125 379.0625 464.453125 378.417969 C 464.453125 377.769531 464.234375 377.105469 463.960938 376.9375 C 463.691406 376.769531 463.46875 376.105469 463.46875 375.457031 C 463.46875 374.8125 463.246094 374.148438 462.976562 373.980469 C 462.703125 373.8125 462.480469 373.25 462.480469 372.734375 C 462.480469 372.214844 462.039062 371 461.496094 370.035156 C 460.953125 369.070312 460.511719 367.976562 460.511719 367.605469 C 460.511719 367.234375 459.839844 365.652344 459.015625 364.09375 C 457.523438 361.253906 457.523438 361.253906 458.523438 360.1875 C 459.074219 359.605469 459.523438 358.886719 459.523438 358.601562 C 459.523438 358.3125 459.859375 357.796875 460.269531 357.457031 C 460.679688 357.117188 461.675781 355.453125 462.480469 353.765625 C 463.289062 352.074219 464.285156 350.410156 464.695312 350.070312 C 465.105469 349.730469 465.441406 349.058594 465.441406 348.578125 C 465.441406 348.09375 466.105469 346.4375 466.917969 344.890625 C 467.734375 343.34375 468.398438 341.667969 468.398438 341.171875 C 468.398438 340.671875 468.621094 340.125 468.890625 339.957031 C 469.164062 339.792969 469.386719 339.125 469.386719 338.480469 C 469.386719 337.832031 469.605469 337.167969 469.878906 337 C 470.148438 336.832031 470.371094 336.167969 470.371094 335.519531 C 470.371094 334.875 470.59375 334.210938 470.863281 334.042969 C 471.136719 333.875 471.355469 332.988281 471.355469 332.070312 C 471.355469 331.152344 471.578125 330.265625 471.851562 330.097656 C 472.121094 329.929688 472.34375 329.042969 472.34375 328.125 C 472.34375 327.207031 472.566406 326.320312 472.835938 326.152344 C 473.109375 325.984375 473.328125 324.210938 473.328125 322.210938 C 473.328125 320.207031 473.550781 318.433594 473.824219 318.265625 C 474.125 318.078125 474.316406 314.324219 474.316406 308.648438 C 474.316406 302.976562 474.125 299.222656 473.824219 299.035156 C 473.550781 298.867188 473.328125 297.535156 473.328125 296.078125 C 473.328125 294.617188 473.109375 293.285156 472.835938 293.117188 C 472.566406 292.953125 472.34375 291.84375 472.34375 290.652344 C 472.34375 289.464844 472.121094 288.355469 471.851562 288.1875 C 471.578125 288.019531 471.355469 287.132812 471.355469 286.214844 C 471.355469 285.300781 471.136719 284.410156 470.863281 284.242188 C 470.59375 284.078125 470.371094 283.410156 470.371094 282.765625 C 470.371094 282.117188 470.148438 281.453125 469.878906 281.285156 C 469.605469 281.117188 469.386719 280.453125 469.386719 279.808594 C 469.386719 279.160156 469.164062 278.496094 468.890625 278.328125 C 468.621094 278.160156 468.398438 277.613281 468.398438 277.117188 C 468.398438 276.617188 467.734375 274.945312 466.917969 273.398438 C 466.105469 271.851562 465.441406 270.273438 465.441406 269.890625 C 465.441406 269.125 464.59375 267.464844 463.511719 266.121094 C 463.128906 265.644531 462.570312 264.757812 462.269531 264.148438 C 461.9375 263.484375 461.171875 262.980469 460.34375 262.882812 C 457.773438 262.585938 457.550781 263.234375 457.550781 270.960938 C 457.550781 275.136719 457.351562 278.148438 457.058594 278.328125 C 456.789062 278.496094 456.566406 280.046875 456.566406 281.777344 C 456.566406 283.507812 456.34375 285.0625 456.074219 285.230469 C 455.800781 285.398438 455.578125 286.0625 455.578125 286.710938 C 455.578125 287.355469 455.359375 288.019531 455.085938 288.1875 C 454.816406 288.355469 454.59375 289.023438 454.59375 289.667969 C 454.59375 290.3125 454.371094 290.980469 454.101562 291.148438 C 453.828125 291.316406 453.605469 291.84375 453.605469 292.324219 C 453.605469 293.304688 451.632812 297.402344 450.539062 298.691406 C 450.148438 299.152344 449.472656 300.308594 449.039062 301.261719 C 448.601562 302.214844 447.679688 303.53125 446.984375 304.183594 C 446.289062 304.835938 445.71875 305.613281 445.71875 305.910156 C 445.71875 306.597656 437.246094 315.058594 436.554688 315.058594 C 436.273438 315.058594 435.402344 315.726562 434.625 316.539062 C 433.84375 317.351562 432.988281 318.019531 432.714844 318.019531 C 432.445312 318.019531 431.710938 318.5 431.082031 319.089844 L 429.941406 320.164062 L 428.714844 319.011719 C 427.371094 317.75 423.039062 309.386719 423.039062 308.058594 C 423.039062 307.601562 422.816406 307.09375 422.546875 306.925781 C 422.273438 306.757812 422.050781 306.089844 422.050781 305.445312 C 422.050781 304.800781 421.832031 304.132812 421.558594 303.964844 C 421.289062 303.796875 421.066406 303.132812 421.066406 302.488281 C 421.066406 301.839844 420.84375 301.175781 420.574219 301.007812 C 420.300781 300.839844 420.078125 300.175781 420.078125 299.527344 C 420.078125 298.882812 419.859375 298.21875 419.585938 298.050781 C 419.316406 297.882812 419.09375 296.550781 419.09375 295.089844 C 419.09375 293.632812 418.871094 292.300781 418.601562 292.132812 C 418.308594 291.953125 418.109375 288.851562 418.109375 284.492188 C 418.109375 280.128906 418.308594 277.027344 418.601562 276.847656 C 418.871094 276.679688 419.09375 275.570312 419.09375 274.382812 C 419.09375 273.195312 419.316406 272.085938 419.585938 271.917969 C 419.859375 271.75 420.078125 271.085938 420.078125 270.4375 C 420.078125 269.792969 420.300781 269.128906 420.574219 268.960938 C 420.84375 268.792969 421.066406 268.28125 421.066406 267.824219 C 421.066406 266.742188 426.34375 256.136719 427.261719 255.375 C 427.652344 255.050781 427.96875 254.515625 427.96875 254.183594 C 427.96875 253.851562 428.414062 253.179688 428.953125 252.6875 C 429.496094 252.199219 429.941406 251.53125 429.941406 251.210938 C 429.941406 250.886719 430.382812 250.222656 430.925781 249.730469 C 431.46875 249.238281 431.914062 248.59375 431.914062 248.292969 C 431.914062 247.996094 436.6875 242.980469 442.523438 237.152344 C 452.578125 227.113281 453.25 226.324219 455.34375 222.117188 C 456.558594 219.671875 457.550781 217.300781 457.550781 216.84375 C 457.550781 216.386719 457.773438 215.878906 458.042969 215.710938 C 458.347656 215.523438 458.539062 211.277344 458.539062 204.617188 C 458.539062 197.957031 458.347656 193.710938 458.042969 193.523438 C 457.773438 193.355469 457.550781 192.46875 457.550781 191.550781 C 457.550781 190.632812 457.328125 189.746094 457.058594 189.578125 C 456.789062 189.410156 456.566406 188.300781 456.566406 187.113281 C 456.566406 185.925781 456.34375 184.816406 456.074219 184.648438 C 455.800781 184.480469 455.578125 183.371094 455.578125 182.183594 C 455.578125 180.996094 455.359375 179.886719 455.085938 179.71875 C 454.816406 179.550781 454.59375 178.660156 454.59375 177.746094 C 454.59375 176.828125 454.371094 175.941406 454.101562 175.773438 C 453.828125 175.605469 453.605469 174.941406 453.605469 174.292969 C 453.605469 173.648438 453.386719 172.980469 453.113281 172.816406 C 452.84375 172.648438 452.621094 171.980469 452.621094 171.335938 C 452.621094 170.6875 452.398438 170.023438 452.128906 169.855469 C 451.855469 169.6875 451.636719 169.023438 451.636719 168.378906 C 451.636719 167.730469 451.414062 167.066406 451.140625 166.898438 C 450.871094 166.730469 450.648438 166.167969 450.648438 165.652344 C 450.648438 165.132812 450.207031 163.917969 449.664062 162.953125 C 449.121094 161.988281 448.675781 160.878906 448.675781 160.488281 C 448.675781 160.097656 448.234375 158.988281 447.691406 158.023438 C 447.148438 157.058594 446.703125 155.988281 446.703125 155.648438 C 446.703125 154.867188 441.621094 144.691406 440.671875 143.570312 C 440.285156 143.113281 439.601562 141.9375 439.152344 140.957031 C 438.707031 139.976562 438.003906 138.898438 437.59375 138.554688 C 437.179688 138.214844 436.84375 137.65625 436.84375 137.316406 C 436.84375 136.972656 436.5 136.410156 436.078125 136.0625 C 435.660156 135.714844 434.902344 134.519531 434.394531 133.414062 C 433.890625 132.304688 432.902344 130.859375 432.203125 130.203125 C 431.5 129.546875 430.925781 128.753906 430.925781 128.445312 C 430.925781 128.136719 430.261719 127.246094 429.449219 126.46875 C 428.632812 125.6875 427.96875 124.8125 427.96875 124.519531 C 427.96875 124.003906 414.636719 110.429688 414.15625 110.457031 C 414.023438 110.464844 413.527344 110.699219 413.054688 110.976562 M 358.96875 421.40625 C 358.953125 422.542969 359.164062 423.609375 359.433594 423.777344 C 359.707031 423.945312 359.925781 424.457031 359.925781 424.914062 C 359.925781 426.242188 364.261719 434.601562 365.605469 435.863281 C 366.277344 436.496094 366.832031 437.257812 366.832031 437.554688 C 366.832031 438.25 377.773438 449.167969 378.472656 449.167969 C 378.765625 449.167969 379.40625 449.613281 379.894531 450.15625 C 380.386719 450.699219 381.058594 451.140625 381.390625 451.140625 C 381.722656 451.140625 382.261719 451.464844 382.589844 451.859375 C 383.351562 452.78125 389.996094 456.074219 391.089844 456.074219 C 391.542969 456.074219 392.054688 456.292969 392.222656 456.566406 C 392.390625 456.835938 393.054688 457.058594 393.703125 457.058594 C 394.347656 457.058594 395.011719 457.28125 395.179688 457.550781 C 395.347656 457.824219 396.195312 458.035156 397.058594 458.027344 C 398.222656 458.011719 397.519531 457.644531 394.359375 456.613281 C 378.789062 451.527344 364.460938 437.484375 360.109375 423.039062 C 359.046875 419.511719 358.992188 419.4375 358.96875 421.40625 M 458.8125 432.75 C 451.34375 445.429688 439.8125 453.816406 424.371094 457.808594 C 420.480469 458.816406 420.128906 458.984375 421.898438 459.007812 C 423.035156 459.019531 424.101562 458.808594 424.269531 458.539062 C 424.4375 458.265625 425.324219 458.042969 426.242188 458.042969 C 427.160156 458.042969 428.046875 457.824219 428.214844 457.550781 C 428.382812 457.28125 428.945312 457.058594 429.460938 457.058594 C 429.980469 457.058594 431.195312 456.613281 432.160156 456.074219 C 433.125 455.53125 434.199219 455.085938 434.542969 455.085938 C 435.464844 455.085938 440.117188 452.6875 440.808594 451.859375 C 441.132812 451.464844 441.671875 451.140625 442.003906 451.140625 C 442.335938 451.140625 443.007812 450.699219 443.5 450.15625 C 443.992188 449.613281 444.636719 449.167969 444.941406 449.167969 C 445.644531 449.167969 456.566406 438.234375 456.566406 437.527344 C 456.566406 437.234375 457.007812 436.59375 457.550781 436.105469 C 458.09375 435.613281 458.539062 434.941406 458.539062 434.609375 C 458.539062 434.277344 458.875 433.726562 459.285156 433.382812 C 460.191406 432.632812 461.65625 429.65625 461.421875 429.046875 C 461.328125 428.808594 460.152344 430.472656 458.8125 432.75 M 231.667969 503.210938 C 230.953125 503.589844 230.003906 504.453125 229.5625 505.128906 C 228.753906 506.363281 228.753906 506.363281 219.636719 506.363281 C 210.472656 506.363281 209.6875 506.488281 207.429688 508.308594 C 205.042969 510.230469 205.09375 509.078125 205.230469 555.925781 L 205.355469 599.796875 L 225.570312 599.796875 L 225.699219 564.332031 C 225.8125 532.257812 225.902344 528.78125 226.632812 527.972656 C 227.394531 527.132812 229.144531 527.074219 256.089844 526.953125 L 284.738281 526.824219 L 284.738281 506.609375 L 264.492188 506.480469 L 244.25 506.351562 L 242.328125 504.386719 C 240.410156 502.421875 240.402344 502.417969 236.6875 502.472656 C 234.558594 502.5 232.410156 502.816406 231.667969 503.210938 M 155.148438 506.691406 C 154.964844 506.875 154.816406 510.078125 154.816406 513.8125 C 154.816406 517.808594 154.613281 520.730469 154.324219 520.910156 C 154.054688 521.078125 153.832031 522.144531 153.832031 523.285156 C 153.832031 525.300781 153.621094 525.566406 146.554688 532.625 C 142.550781 536.621094 139.042969 539.890625 138.757812 539.890625 C 138.472656 539.890625 137.601562 540.558594 136.820312 541.371094 C 136.042969 542.183594 135.652344 542.847656 135.953125 542.847656 C 136.769531 542.847656 146.679688 533.703125 151.542969 528.457031 L 155.800781 523.867188 L 155.804688 515.371094 L 155.804688 506.878906 L 175.28125 506.589844 L 165.378906 506.476562 C 159.929688 506.414062 155.328125 506.511719 155.148438 506.691406 M 334.394531 507.082031 C 333.773438 507.425781 332.707031 508.230469 332.019531 508.875 C 329.226562 511.5 329.34375 509.359375 329.480469 556.417969 L 329.605469 599.796875 L 349.820312 599.796875 L 349.945312 564.8125 L 350.074219 529.832031 L 351.394531 528.453125 L 352.714844 527.070312 L 373.253906 527.070312 C 392.527344 527.070312 393.84375 527.128906 394.609375 527.972656 C 395.3125 528.746094 395.425781 530.234375 395.425781 538.496094 C 395.425781 547.195312 395.339844 548.199219 394.527344 548.9375 C 393.722656 549.664062 391.730469 549.753906 376.34375 549.753906 C 362.257812 549.753906 358.957031 549.878906 358.496094 550.433594 C 358.105469 550.902344 357.972656 554.035156 358.066406 560.664062 L 358.203125 570.214844 L 375.917969 570.34375 C 391.480469 570.457031 393.746094 570.570312 394.523438 571.277344 C 395.332031 572.007812 395.421875 573.320312 395.542969 585.9375 L 395.671875 599.796875 L 415.890625 599.796875 L 416.015625 555.925781 C 416.148438 509.078125 416.203125 510.230469 413.816406 508.308594 C 411.359375 506.328125 412.054688 506.363281 373.125 506.410156 C 343.835938 506.449219 335.273438 506.597656 334.394531 507.082031 M 471.53125 507.046875 C 469.78125 508.019531 468.949219 508.855469 468.164062 510.4375 C 467.511719 511.746094 467.414062 517.210938 467.414062 552.710938 C 467.414062 597.203125 467.265625 594.847656 470.257812 597.71875 L 471.664062 599.0625 L 512.308594 598.9375 L 552.957031 598.8125 L 552.957031 579.582031 L 520.539062 579.457031 L 488.121094 579.328125 L 488.121094 554.015625 C 488.121094 530.121094 488.171875 528.65625 489.023438 527.886719 C 489.832031 527.15625 492.039062 527.070312 510.394531 527.070312 C 529.476562 527.070312 530.917969 527.132812 531.667969 527.960938 C 532.324219 528.6875 532.492188 530.269531 532.605469 536.710938 L 532.742188 544.574219 L 552.957031 544.574219 L 553.085938 527.597656 L 553.21875 510.621094 L 551.867188 509.214844 C 549 506.222656 551.066406 506.359375 510.109375 506.410156 C 482.082031 506.449219 472.324219 506.609375 471.53125 507.046875 M 660.320312 506.726562 L 670.058594 506.878906 L 670.058594 524.453125 L 679.398438 533.652344 C 684.539062 538.710938 689.03125 542.847656 689.378906 542.847656 C 689.730469 542.847656 685.640625 538.46875 680.292969 533.113281 L 670.570312 523.375 L 670.304688 506.609375 L 660.441406 506.59375 L 650.582031 506.578125 L 660.320312 506.726562 M 649.90625 525.195312 C 649.871094 527.28125 650.0625 529.121094 650.335938 529.289062 C 650.605469 529.457031 650.828125 529.980469 650.828125 530.457031 C 650.828125 532.898438 653.582031 536.507812 661.414062 544.324219 C 665.898438 548.792969 669.5625 552.789062 669.5625 553.203125 C 669.5625 553.617188 665.898438 557.613281 661.414062 562.082031 C 653.582031 569.902344 650.828125 573.507812 650.828125 575.953125 C 650.828125 576.425781 650.605469 576.949219 650.335938 577.117188 C 650.058594 577.289062 649.871094 579.304688 649.910156 581.707031 L 649.980469 585.992188 L 650.359375 581.800781 C 651.070312 573.957031 651.691406 572.933594 662.164062 562.378906 L 671.40625 553.066406 L 662.5625 544.242188 C 652.390625 534.097656 651.101562 532.085938 650.382812 525.285156 L 649.972656 521.402344 L 649.90625 525.195312 M 174.945312 526.703125 C 174.289062 532.285156 172.859375 534.371094 163.007812 544.164062 L 153.992188 553.121094 L 159.902344 558.691406 C 171.40625 569.53125 174.042969 573.246094 175.035156 580.019531 L 175.402344 582.539062 L 175.464844 579.488281 C 175.5 577.808594 175.304688 576.296875 175.035156 576.128906 C 174.761719 575.960938 174.539062 575.429688 174.539062 574.945312 C 174.539062 573.042969 172.773438 570.878906 164.449219 562.578125 C 159.695312 557.835938 155.804688 553.617188 155.804688 553.203125 C 155.804688 552.789062 159.472656 548.792969 163.953125 544.324219 C 170.832031 537.460938 172.371094 535.648438 173.84375 532.679688 C 175.300781 529.738281 175.558594 528.738281 175.429688 526.519531 L 175.28125 523.867188 L 174.945312 526.703125 M 564.394531 542.175781 C 564.207031 542.367188 564.050781 544.578125 564.050781 547.089844 C 564.050781 551.546875 564.015625 551.679688 562.648438 552.65625 C 561.539062 553.445312 560.316406 553.6875 556.855469 553.800781 L 552.464844 553.941406 L 552.324219 559.542969 C 552.230469 563.25 552.375 565.375 552.753906 565.828125 C 553.175781 566.339844 554.703125 566.515625 558.671875 566.515625 L 564.015625 566.515625 L 564.296875 577.117188 L 575.636719 577.117188 L 575.777344 572.617188 C 575.960938 566.8125 576.171875 566.605469 582.0625 566.414062 L 586.484375 566.269531 L 586.484375 553.941406 L 581.199219 553.804688 L 575.914062 553.664062 L 575.777344 547.886719 L 575.636719 542.109375 L 570.1875 541.972656 C 567.191406 541.894531 564.582031 541.988281 564.394531 542.175781 M 607.785156 543.164062 C 607.59375 543.351562 607.4375 545.792969 607.4375 548.585938 L 607.4375 553.664062 L 601.644531 553.804688 L 595.851562 553.941406 L 595.851562 565.285156 L 601.628906 565.421875 L 607.410156 565.5625 L 607.546875 571.339844 L 607.6875 577.117188 L 619.027344 577.117188 L 619.164062 571.832031 L 619.304688 566.550781 L 629.875 566.269531 L 629.875 553.941406 L 624.589844 553.804688 L 619.304688 553.664062 L 619.164062 548.378906 L 619.027344 543.097656 L 613.578125 542.957031 C 610.578125 542.882812 607.972656 542.972656 607.785156 543.164062 M 696.1875 552.859375 L 696.1875 563.066406 L 692.789062 563.066406 C 689.449219 563.066406 689.347656 563.105469 686.75 565.367188 C 685.296875 566.636719 680.949219 570.792969 677.082031 574.605469 L 670.058594 581.542969 L 670.058594 599.058594 L 659.851562 599.058594 C 652.902344 599.058594 649.804688 599.21875 650.148438 599.5625 C 650.46875 599.878906 654.265625 600.015625 660.476562 599.929688 L 670.304688 599.796875 L 670.570312 582.046875 L 678.8125 573.789062 C 683.347656 569.246094 687.300781 565.53125 687.601562 565.53125 C 687.902344 565.53125 688.539062 565.09375 689.019531 564.5625 C 689.703125 563.8125 690.667969 563.566406 693.410156 563.453125 L 696.929688 563.3125 L 697.0625 553.484375 C 697.148438 547.273438 697.011719 543.476562 696.691406 543.15625 C 696.347656 542.8125 696.1875 545.910156 696.1875 552.859375 M 256.101562 549.25 C 255.824219 549.527344 251.007812 549.789062 244.785156 549.867188 L 233.953125 550 L 233.953125 570.214844 L 283.75 570.214844 L 283.75 550 L 274.394531 549.863281 C 269.160156 549.789062 264.828125 549.515625 264.558594 549.246094 C 263.933594 548.621094 256.730469 548.621094 256.101562 549.25 M 132.136719 563.410156 C 133.628906 563.503906 135.402344 563.835938 136.082031 564.152344 C 136.761719 564.46875 141.253906 568.625 146.066406 573.382812 L 154.816406 582.035156 L 154.816406 590.449219 C 154.816406 596.332031 154.996094 599.039062 155.410156 599.453125 C 156.164062 600.203125 174.816406 600.296875 175.28125 599.550781 C 175.480469 599.226562 172.164062 599.058594 165.695312 599.058594 L 155.804688 599.058594 L 155.804688 581.984375 L 152.722656 578.699219 C 151.027344 576.890625 146.648438 572.632812 142.992188 569.238281 L 136.347656 563.066406 L 132.886719 563.15625 C 129.671875 563.242188 129.617188 563.257812 132.136719 563.410156 M 430.171875 589.320312 L 430.1875 599.796875 L 432.566406 599.949219 C 433.871094 600.03125 435.710938 600.53125 436.648438 601.058594 C 437.695312 601.648438 439.289062 602.015625 440.789062 602.015625 C 442.285156 602.015625 443.878906 601.648438 444.929688 601.058594 C 445.867188 600.53125 447.703125 600.03125 449.011719 599.949219 L 451.386719 599.796875 L 451.402344 589.195312 L 451.417969 578.597656 L 451.121094 599.550781 L 430.453125 599.550781 L 430.304688 589.195312 L 430.15625 578.84375 L 430.171875 589.320312 "/>
</g>
</svg>
